<svg width="300" height="300" viewBox="0 0 300 300" fill="none" xmlns="http://www.w3.org/2000/svg">
<circle cx="150" cy="150" r="143" fill="#CC450D" stroke="#202124" stroke-width="8"/>
<path d="M185.222 284.496C173.973 287.434 162.169 289 150 289C137.83 289 126.026 287.434 114.777 284.496L119.831 265.147C129.444 267.658 139.551 269 150 269C160.449 269 170.556 267.658 180.169 265.147L185.222 284.496ZM47.2539 210.08C57.5781 227.692 72.3085 242.422 89.9199 252.746L79.8066 269.997C59.2439 257.943 42.0561 240.755 30.002 220.192L47.2539 210.08ZM269.997 220.192C257.943 240.755 240.755 257.943 220.192 269.997L210.08 252.746C227.692 242.422 242.422 227.692 252.746 210.08L269.997 220.192ZM34.8525 119.831C32.342 129.444 31 139.551 31 150C31 160.449 32.342 170.556 34.8525 180.169L15.5029 185.222C12.5653 173.973 11 162.169 11 150C11 137.83 12.5651 126.026 15.5029 114.777L34.8525 119.831ZM284.496 114.777C287.434 126.026 289 137.83 289 150C289 162.169 287.434 173.973 284.496 185.222L265.147 180.169C267.658 170.556 269 160.449 269 150C269 139.551 267.658 129.444 265.147 119.831L284.496 114.777ZM89.9199 47.2539C72.3085 57.5781 57.5781 72.3085 47.2539 89.9199L30.002 79.8066C42.0562 59.2439 59.2439 42.0562 79.8066 30.002L89.9199 47.2539ZM220.192 30.002C240.755 42.0561 257.943 59.2439 269.997 79.8066L252.746 89.9199C242.422 72.3085 227.692 57.5781 210.08 47.2539L220.192 30.002ZM150 11C162.169 11 173.973 12.5653 185.222 15.5029L180.169 34.8525C170.556 32.342 160.449 31 150 31C139.551 31 129.444 32.342 119.831 34.8525L114.777 15.5029C126.026 12.5651 137.83 11 150 11Z" fill="white"/>
<mask id="mask0_2825_8254" style="mask-type:luminance" maskUnits="userSpaceOnUse" x="50" y="50" width="200" height="200">
<circle cx="150" cy="150" r="100" fill="white"/>
</mask>
<g mask="url(#mask0_2825_8254)">
<path d="M65.193 144.987V139.703L104.819 127.023L129.651 103.247L149.728 90.0386L187.769 83.1701C187.769 83.1701 199.396 85.2524 204.677 90.0386C209.134 94.0786 212.602 103.247 212.602 103.247L210.488 214.2L212.602 251.184L147.615 258.053L152.899 166.649L140.218 157.667L120.141 153.44L111.159 144.987L92.667 148.685L65.193 144.987Z" fill="white"/>
<path fill-rule="evenodd" clip-rule="evenodd" d="M148.66 115.217C149.677 109.425 150.704 103.573 143.992 99.9061C144.083 99.815 144.132 99.4987 144.184 99.1596C144.244 98.7681 144.309 98.3464 144.449 98.2062C145.095 97.7831 145.642 97.4132 146.161 97.0627C147.164 96.3841 148.059 95.7787 149.353 95.0027C159.356 88.7918 170.012 84.8691 182.107 86.5689C182.435 86.6035 182.759 86.6426 183.081 86.6815C183.976 86.7896 184.854 86.8958 185.768 86.8958C187.468 86.8958 189.299 86.4382 189.56 84.5422C189.822 82.5155 188.253 81.4694 186.422 81.0772C185.119 80.8359 183.781 80.7015 182.459 80.5688C181.99 80.5217 181.524 80.4748 181.061 80.4234C164.063 78.2659 150.137 84.4768 138.304 96.2449C138.17 96.3637 138.043 96.4927 137.916 96.6219C137.484 97.061 137.05 97.5019 136.342 97.5525C132.943 97.7486 130.132 99.5792 127.516 101.475C121.502 105.855 116.01 110.955 110.649 116.12C99.9923 126.384 87.7012 133.118 72.7296 134.23C70.4414 134.426 68.2185 134.883 66.0611 135.799C61.0269 137.891 60.2424 142.467 64.1651 146.259C65.9303 148.024 68.1532 149.07 70.4414 149.986C78.0906 152.928 86.0667 152.732 93.9775 152.143C98.0658 151.835 102.125 151.409 106.174 150.985C108.146 150.777 110.117 150.571 112.087 150.378C112.189 150.37 112.292 150.359 112.395 150.349C113.15 150.271 113.907 150.192 114.31 151.228C115.225 153.712 117.383 154.954 119.54 156.131C124.444 158.746 129.674 159.662 135.166 159.465C136.342 159.4 137.323 159.596 138.369 160.25C139.742 161.1 141.246 161.884 142.815 162.211C146.868 162.996 148.568 165.742 149.353 169.468C150.726 176.006 150.53 182.675 150.137 189.278C149.157 204.119 147.457 218.763 144.907 233.408C143.485 241.744 142.725 250.19 141.965 258.636C141.712 261.451 141.458 264.267 141.18 267.078C140.024 278.405 138.369 289.625 136.715 300.843C136.126 304.842 135.536 308.84 134.97 312.842C134.166 318.683 133.751 324.564 133.335 330.441C133.007 335.089 132.678 339.735 132.158 344.355C130.655 358.149 127.713 371.617 121.763 384.039C114.637 399.011 110.453 414.832 107.707 430.915C102.15 463.866 102.738 496.555 111.956 529.179C118.821 553.499 129.543 575.335 145.757 594.491C163.801 615.739 184.788 633.653 208.781 647.971C219.503 654.378 230.291 660.719 241.536 666.276C249.97 670.461 258.926 673.403 268.079 675.625C268.212 675.661 268.348 675.691 268.483 675.722C269.352 675.917 270.202 676.108 269.975 677.521C269.431 680.65 269.673 683.748 269.916 686.857C270.024 688.231 270.131 689.607 270.171 690.989C270.825 711.518 271.675 732.047 273.179 752.575C273.244 753.556 272.983 754.144 272.067 754.471C271.865 754.541 271.664 754.613 271.462 754.685C269.975 755.216 268.507 755.74 266.837 755.452C260.692 754.471 254.481 753.948 248.27 753.752C245.745 753.662 243.22 753.532 240.695 753.402C234.067 753.061 227.439 752.72 220.811 753.098C218.065 753.229 215.646 754.144 214.535 756.956C213.423 759.898 214.731 762.186 216.692 764.278C218.291 766.005 220.329 767.169 222.559 768.443L222.707 768.528C219.765 770.162 217.215 771.797 215.385 774.281C211.397 779.707 213.292 785.461 219.634 787.487C220.564 787.797 221.524 787.987 222.494 788.179C222.956 788.271 223.42 788.362 223.884 788.468C220.419 796.706 224.211 802.59 233.167 802.982C238.986 803.243 243.759 800.628 248.401 797.556C255.293 793.058 261.194 787.36 267.082 781.674C267.785 780.996 268.487 780.318 269.191 779.642C270.171 778.727 271.021 777.681 271.479 776.438C271.871 775.327 271.871 774.15 271.021 773.235C270.171 772.32 269.06 772.189 267.883 772.646C267.735 772.714 267.581 772.778 267.426 772.844C266.828 773.095 266.206 773.356 265.791 773.823C263.027 776.635 259.916 778.96 256.813 781.28C255.658 782.143 254.504 783.005 253.369 783.891C252.515 784.548 251.672 785.213 250.83 785.877C247.485 788.514 244.172 791.125 240.359 793.11C238.136 794.287 235.848 795.137 233.298 794.548C232.318 794.352 231.598 794.025 231.468 792.914C231.337 791.214 233.69 788.01 235.456 787.683C235.731 787.622 236.007 787.563 236.282 787.503C238.356 787.056 240.4 786.615 242.19 785.461C243.366 784.741 244.674 783.826 244.478 782.257C244.282 780.557 242.778 779.969 241.274 779.577C238.685 778.86 236.049 779.119 233.445 779.375C232.959 779.422 232.474 779.47 231.991 779.511L231.918 779.517C229.524 779.711 227.194 779.9 224.864 779.577C224.697 779.551 224.518 779.535 224.334 779.519C223.585 779.454 222.773 779.384 222.511 778.596C222.305 777.927 222.828 777.421 223.315 776.948C223.447 776.82 223.576 776.695 223.688 776.569C225.018 775.128 226.584 773.968 228.145 772.812C228.425 772.605 228.705 772.398 228.983 772.189C229.899 771.47 230.748 771.339 231.925 771.666C235.325 772.646 238.79 773.17 242.32 773.235C245.72 773.3 248.204 771.993 248.401 770.162C248.597 768.331 246.897 766.501 243.759 765.455C242.32 764.997 240.866 764.589 239.411 764.18C237.956 763.771 236.502 763.363 235.063 762.905C234.727 762.793 234.391 762.685 234.055 762.577C232.428 762.053 230.794 761.527 229.114 760.552C229.285 760.478 229.419 760.414 229.527 760.363C229.709 760.276 229.817 760.225 229.899 760.225C232.73 760.349 235.562 760.441 238.392 760.533C248.958 760.877 259.507 761.221 269.975 763.232C277.036 764.54 282.659 760.029 282.397 753.098C282.07 745.776 281.613 738.519 281.155 731.262C280.984 728.642 280.753 726.027 280.521 723.414C279.956 717.031 279.392 710.663 279.717 704.261C280.044 696.677 279.782 689.159 278.736 681.706C278.213 677.979 278.278 677.979 282.005 678.633C297.696 681.509 313.452 683.209 329.404 681.444C337.64 680.529 345.81 679.352 353.98 678.176L353.986 678.175C355.555 677.979 356.34 678.044 355.948 679.94C355.621 681.575 355.817 683.209 356.078 684.844C356.421 686.871 356.779 688.895 357.137 690.919C358.419 698.163 359.7 705.402 360.262 712.76C360.498 715.837 360.841 718.913 361.185 721.992C362.178 730.886 363.173 739.799 361.57 748.783C361.537 749.045 361.537 749.307 361.537 749.56C361.537 749.813 361.537 750.058 361.505 750.287C361.243 752.902 360.785 755.583 359.739 757.936C355.882 766.632 350.521 774.346 344.572 781.669C343.33 783.238 341.63 784.48 339.668 785.199C339.569 785.232 339.469 785.273 339.369 785.314C338.882 785.513 338.403 785.709 337.969 785.003C337.119 783.565 338.034 780.361 339.603 779.577C341.499 778.596 343.33 777.55 344.702 775.85C345.683 774.542 346.337 773.104 345.422 771.535C344.506 769.966 343.003 770.031 341.499 770.162C339.515 770.382 337.811 771.207 336.071 772.047C335.747 772.204 335.421 772.361 335.092 772.516C332.281 773.823 329.469 775.131 326.135 775C327.061 774.06 327.926 773.037 328.791 772.014C331.957 768.268 335.112 764.535 341.172 764.997C342.872 765.128 344.637 764.997 346.337 764.866C348.691 764.736 350.913 764.343 352.94 763.101C355.751 761.336 355.751 758.525 352.875 756.89C352.208 756.466 351.372 756.21 350.576 755.967L350.39 755.91C347.591 755.11 344.791 755.304 341.991 755.498C341.13 755.558 340.268 755.617 339.407 755.648C338.959 755.669 338.505 755.698 338.048 755.726C337.103 755.785 336.148 755.844 335.223 755.844H331.365C336.453 753.646 341.721 752.896 346.996 752.145C347.212 752.114 347.428 752.083 347.644 752.052L348.066 751.998C351.461 751.558 354.911 751.111 358.301 750.483C359.87 750.222 361.243 749.176 361.047 747.28C360.916 745.384 359.609 744.665 357.843 744.534C357.606 744.534 357.386 744.516 357.174 744.499C356.978 744.484 356.79 744.469 356.601 744.469C345.552 745.188 334.7 746.888 324.239 750.81C321.624 751.791 319.728 753.491 319.663 756.564C319.597 759.636 321.232 761.663 323.847 762.97C324.452 763.239 325.074 763.474 325.722 763.718C326.335 763.949 326.972 764.188 327.639 764.474L327.638 764.475C326.069 765.521 324.697 766.436 323.455 767.416C321.036 769.312 318.944 771.535 318.028 774.542C316.721 778.857 318.682 782.257 323.128 783.172C324.828 783.565 326.527 783.368 328.227 783.107C329.339 782.911 329.927 782.845 329.796 784.48C329.142 791.475 334.111 795.594 340.976 794.025C345.552 792.979 349.214 790.364 352.286 786.964C360.524 777.811 366.866 767.612 368.958 755.256C370.135 748.13 369.938 740.938 369.415 733.747C368.5 720.932 367.454 708.118 365.362 695.435C365.25 694.709 365.142 693.98 365.034 693.25C364.326 688.465 363.612 683.646 361.57 679.221C360.72 677.391 360.851 676.933 362.812 676.475C367.781 675.298 372.815 673.926 377.718 672.422C381.641 671.245 385.498 669.872 389.094 667.845C390.663 666.995 392.036 665.753 391.382 663.727C390.683 661.693 388.935 661.76 387.216 661.825L387.067 661.831C386.741 661.831 386.414 661.896 386.087 661.961C380.075 662.65 374.124 663.669 368.175 664.687C361.702 665.795 355.232 666.903 348.691 667.584C347.632 667.69 346.574 667.797 345.515 667.904C330.228 669.453 314.935 671.002 299.526 668.434C283.378 665.753 267.36 662.681 251.931 656.862C240.653 652.618 229.891 647.392 219.095 642.149C217.75 641.496 216.405 640.842 215.058 640.191C208.651 637.118 202.44 633.718 196.817 629.272C188.057 622.408 179.492 615.281 171.254 607.763C148.241 586.842 132.485 561.475 123.986 531.532C123.398 529.448 122.796 527.367 122.194 525.286C119.115 514.64 116.036 503.996 114.833 492.894C112.806 473.607 113.395 454.321 116.141 435.099C118.56 418.297 123.136 402.084 130.066 386.458C134.839 375.736 139.611 364.753 140.723 352.788C140.976 350.147 141.325 347.513 141.675 344.876C142.321 340.008 142.969 335.129 143.011 330.168C143.076 325.526 143.599 320.819 144.253 316.242C144.623 313.536 144.998 310.833 145.373 308.13C147.317 294.112 149.258 280.118 150.464 266.032C151.208 257.174 152.087 248.335 152.964 239.504C153.706 232.042 154.447 224.585 155.106 217.129C155.253 215.481 155.406 213.834 155.559 212.186C156.632 200.626 157.705 189.06 156.675 177.444C156.664 177.323 156.653 177.202 156.642 177.081C155.938 169.312 155.296 162.227 146.476 159.008C146.792 158.482 147.277 158.379 147.692 158.291C147.793 158.269 147.89 158.249 147.98 158.223C153.537 156.85 158.179 153.843 162.363 150.116C167.462 145.54 169.555 139.656 169.032 132.922C168.77 129.849 166.939 127.823 163.997 126.907C162.101 126.319 160.271 126.45 158.375 126.646C155.498 126.973 152.752 127.561 150.007 128.476C148.372 128.999 147.849 128.542 147.457 126.973C146.794 124.066 147.404 121.28 148.014 118.488C148.186 117.7 148.359 116.911 148.503 116.12C148.555 115.819 148.607 115.518 148.66 115.217ZM71.0298 143.121C69.7876 142.794 68.5454 142.402 67.5647 141.16C69.6568 140.114 71.7489 139.787 73.841 139.917C88.4203 139.656 100.646 133.38 111.63 124.357C116.991 119.912 122.025 115.139 126.797 110.04C129.02 107.621 131.766 105.855 134.708 104.352C138.304 102.521 141.703 104.352 142.226 108.34C142.747 112.272 142.04 116.101 141.327 119.964C141.234 120.469 141.14 120.975 141.05 121.481C141.003 121.721 140.955 121.96 140.907 122.198C140.548 123.974 140.196 125.716 140.657 127.561C141.834 132.072 145.495 134.164 150.66 132.857C153.079 132.268 155.498 131.811 157.917 131.68C160.925 131.484 161.578 132.334 161.971 135.21C162.624 139.917 160.467 143.317 157.329 146.259C151.379 151.882 143.665 153.516 135.95 155.085C129.739 156.327 124.509 154.431 119.475 151.228C119.311 151.097 119.148 150.983 118.985 150.868C118.821 150.754 118.658 150.639 118.494 150.509C118.443 150.458 118.392 150.327 118.31 150.116C118.287 150.057 118.261 149.992 118.233 149.92C119.98 149.616 121.728 149.332 123.472 149.048C126.229 148.6 128.977 148.153 131.701 147.632C134.25 147.109 136.8 146.39 139.284 145.605C140.265 145.278 141.246 144.821 142.096 144.167C143.534 143.121 144.645 141.748 144.122 139.787C143.599 137.76 141.965 136.975 140.069 136.779C138.696 136.583 137.323 136.91 135.95 137.237C126.011 139.834 115.881 140.943 105.764 142.051C102.638 142.393 99.5137 142.735 96.3965 143.121C90.3817 143.84 84.3669 144.232 78.2867 144.102C75.8677 144.036 73.3834 143.775 71.0298 143.121Z" fill="#202124"/>
<path d="M218.065 121.154C217.019 136.453 216.431 153.778 216.235 171.038C215.908 199.019 214.992 227.001 213.816 255.048C213.097 271.72 213.227 288.457 215.123 305.128C216.039 313.169 218.327 320.623 222.707 327.683C238.071 352.592 256.181 375.148 277.232 395.35C300.899 418.101 324.893 440.526 349.671 462.101C353.136 465.108 356.798 467.854 360.328 470.796C361.439 471.711 361.962 471.581 362.682 470.338C365.101 466.22 367.454 462.166 369.481 457.851C369.873 457.067 370.2 455.89 371.181 455.955C372.358 456.021 372.423 457.394 372.684 458.243C374.319 464.52 373.927 470.796 371.573 476.811C370.919 478.511 371.311 479.361 372.619 480.472C387.46 492.567 403.347 503.027 420.28 511.919C429.629 516.822 439.632 519.895 450.092 521.399C455.126 522.183 460.226 521.399 465.194 520.287C477.878 517.28 488.338 510.546 497.36 501.393C498.21 500.543 499.06 499.628 500.106 498.909C502.068 497.601 504.16 497.47 506.056 498.974C507.886 500.347 508.344 502.308 507.69 504.466C507.036 506.558 505.794 508.258 504.421 509.892C491.476 525.125 475.132 533.821 455.126 534.213C440.285 534.474 426.425 529.832 413.35 522.902C396.678 514.011 380.987 503.747 366.735 491.325C365.231 490.017 364.578 490.344 363.335 491.717C354.379 501.524 342.937 503.747 330.385 501.981C329.47 501.851 328.489 501.393 327.639 500.935C324.762 499.236 324.697 496.097 327.377 494.136C329.208 492.828 331.365 492.305 333.523 491.652C340.192 489.69 346.402 486.879 352.221 483.218C354.052 482.041 354.313 481.387 352.417 479.884C332.804 464.324 315.086 446.737 297.107 429.346C279.521 412.413 262.261 395.154 246.57 376.455C241.601 370.506 236.567 364.557 232.318 358.019C231.795 357.3 231.272 356.581 230.683 355.927C213.75 337.621 205.513 315.785 203.813 291.072C202.244 268.843 203.551 246.745 205.055 224.582C205.905 212.814 205.905 201.046 206.297 189.213C207.082 166.657 207.866 144.036 209.566 121.481C209.958 116.185 209.893 110.824 208.912 105.594C208.585 103.698 208.128 101.083 210.22 100.364C212.247 99.6447 213.554 101.802 214.731 103.437C218.065 108.078 218.065 113.636 218.065 121.154Z" fill="#202124"/>
<path d="M177.923 432.223C177.923 418.624 177.923 408.556 177.923 398.488C177.923 396.134 178.054 393.715 178.315 391.361C178.512 389.923 178.969 388.289 180.865 388.289C182.696 388.289 182.957 389.858 183.284 391.231C182.303 398.945 182.826 402.868 183.35 407.837C185.703 429.019 184.788 448.502 188.514 469.488C193.222 496.228 199.367 522.641 211.658 547.092C219.634 562.979 228.853 578.212 241.078 591.287C244.609 595.079 248.597 598.348 253.043 601.029C264.157 607.894 275.794 613.712 288.674 616.523C296.584 618.223 304.626 619.204 312.798 619.269C315.217 619.269 317.571 619.531 319.794 620.381C322.736 621.492 328.031 623.977 327.966 626.657C327.9 629.73 326.462 631.691 323.716 632.868C321.297 633.914 318.682 634.241 316.002 634.241C289.72 634.175 265.464 627.507 243.955 612.078C235.194 605.801 228.134 597.891 222.053 589.065C204.14 563.11 193.287 534.147 185.703 503.746C179.427 479.033 177.139 453.994 177.923 432.223Z" fill="#202124"/>
<path d="M15.0008 598.675C14.9355 579.454 18.7274 556.572 24.8729 534.082C32.2606 507.015 40.629 480.21 52.9201 454.844C64.4267 430.981 79.3983 409.537 98.2925 390.838C101.169 388.027 104.307 385.543 107.642 383.255C108.949 382.274 110.387 381.424 112.087 381.424C113.068 381.424 114.179 381.293 114.702 382.339C115.16 383.255 114.768 384.104 114.245 384.889C113.722 385.674 113.133 386.523 112.48 387.243C80.9673 417.84 61.6808 455.628 47.6899 496.686C40.4983 517.803 34.4181 539.116 30.6916 561.148C25.1998 593.707 25.919 626.003 32.9798 658.235C35.1373 668.042 37.4909 677.848 40.5637 687.459C41.0213 688.832 41.3482 690.335 41.479 691.774C41.6097 693.277 41.0867 694.716 39.4522 695.37C37.8832 695.958 36.7717 695.173 35.7911 694.062C33.5682 691.512 32.0645 688.505 30.6916 685.432C25.8536 674.579 23.3039 663.073 20.4272 651.697C16.5045 635.614 15.2623 619.335 15.0008 598.675Z" fill="#202124"/>
<path d="M514.816 522.249C514.097 537.678 509.717 552.78 503.833 567.49C496.968 584.685 486.05 599.068 473.367 612.274C463.233 622.8 452.38 632.541 441.135 641.76C432.505 648.886 422.96 654.574 412.827 659.281C411.127 660.066 409.362 660.785 407.466 660.915C405.308 661.046 403.347 660.458 402.301 658.366C401.32 656.339 402.105 654.574 403.477 652.939C404.72 651.501 406.419 650.586 408.054 649.67C412.173 647.448 416.292 645.355 420.345 643.002C434.074 634.895 445.516 623.977 457.218 613.386C463.821 607.436 469.967 600.964 475.916 594.23C487.946 580.5 495.987 564.679 501.545 547.419C505.01 536.632 507.886 525.779 508.998 514.469C509.128 513.292 509.455 512.05 510.828 511.853C512.07 511.723 512.92 512.638 513.443 513.684C514.686 516.234 514.816 518.98 514.816 522.249Z" fill="#202124"/>
<path d="M318.747 606.39C305.083 605.932 291.942 601.421 280.109 593.249C277.102 591.157 274.617 588.607 273.898 584.75C273.506 582.854 273.898 581.154 275.533 579.912C277.036 578.8 279.978 581.154 281.482 582.004C292.204 587.692 303.776 590.438 315.74 591.615C323.389 592.399 330.842 590.372 338.361 589.13C340.78 588.738 343.199 588.476 345.683 588.869C349.475 589.457 350.783 589.849 351.502 593.053C352.156 596.256 350.587 599.395 347.252 601.421C345.618 602.402 343.918 603.121 342.022 603.513C334.569 605.017 327.116 606.129 318.747 606.39Z" fill="#202124"/>
<path d="M327.704 570.955C318.944 570.628 309.268 569.451 299.984 565.921C297.957 565.136 295.669 565.136 294.165 563.502C292.988 562.194 292.923 561.867 293.511 560.168C294.1 558.468 295.473 557.618 297.238 557.422C300.18 557.029 303.122 556.899 306.064 557.226C316.655 558.468 327.181 559.514 337.838 557.945C343.918 557.029 349.802 555.264 355.555 553.238C358.105 552.322 360.655 551.407 363.401 551.342C366.473 551.276 368.762 552.649 369.742 555.068C370.723 557.552 369.938 558.337 367.519 560.298C366.408 561.214 365.166 562.064 363.858 562.717C352.744 567.948 341.172 571.02 327.704 570.955Z" fill="#202124"/>
<path d="M142.357 676.933C138.958 676.933 136.343 676.083 133.858 674.775C122.679 668.761 112.872 660.85 104.177 651.632C102.346 649.67 100.711 647.447 99.8616 644.832C99.077 642.609 98.9463 640.387 101.038 638.817C103.065 637.248 105.092 637.902 106.922 639.144C116.01 645.159 124.313 652.285 132.812 659.019C137.519 662.746 142.488 666.342 146.345 671.114C148.372 673.664 147.914 675.495 144.776 676.475C143.861 676.737 142.815 676.867 142.357 676.933Z" fill="#202124"/>
<path d="M341.434 533.232C334.504 532.513 327.835 531.924 321.493 529.571C319.924 528.982 318.486 528.329 317.244 527.152C316.263 526.237 315.74 525.19 316.263 523.883C316.786 522.641 317.832 522.314 319.074 522.379C321.101 522.51 323.193 522.51 325.155 522.837C333.261 524.014 341.041 523.033 348.691 519.96C354.575 517.541 360.197 514.403 366.343 512.703C367.846 512.311 369.612 511.003 370.919 512.507C372.161 514.011 371.377 515.972 370.788 517.672C369.023 522.641 364.904 525.517 360.786 528.132C354.902 531.728 348.233 533.232 341.434 533.232Z" fill="#202124"/>
<path d="M167.201 652.743C160.271 651.828 153.341 649.343 146.934 645.355C143.403 643.133 140.135 640.517 137.062 637.706C135.885 636.595 134.774 635.353 134.054 633.849C133.139 631.888 132.878 629.926 134.447 628.096C135.95 626.396 137.846 626.33 139.873 626.984C142.815 627.965 145.692 629.142 148.438 630.645C155.172 634.372 161.971 637.902 168.901 641.237C171.451 642.479 173.674 644.113 175.635 646.075C177.335 647.774 177.269 649.082 175.373 650.52C173.151 652.22 170.47 652.678 167.201 652.743Z" fill="#202124"/>
<path d="M57.0392 640.909C58.4121 640.844 59.3928 641.563 60.0466 642.675C60.8311 643.917 61.5503 645.224 62.204 646.532C68.2188 658.954 76.5872 669.676 85.6094 679.94C86.7208 681.248 87.963 682.49 88.7475 683.994C89.9897 686.347 89.7936 688.897 88.2245 690.335C86.6554 691.839 84.1711 691.904 81.8828 690.466C80.9675 689.878 80.1176 689.224 79.4639 688.439C69.7879 677.129 60.7003 665.361 55.4047 651.174C54.6202 649.016 53.7049 646.924 53.7703 644.571C53.901 642.413 55.2086 640.975 57.0392 640.909Z" fill="#202124"/>
<path d="M175.504 105.79C175.635 104.09 175.635 102.652 176.42 101.41C177.139 100.233 178.185 99.4485 179.623 99.5139C181.062 99.5792 182.042 100.495 182.565 101.802C183.481 104.221 183.415 106.575 181.912 108.798C181.062 110.04 180.081 111.02 178.512 110.628C176.877 110.301 176.028 109.124 175.766 107.555C175.635 106.902 175.57 106.182 175.504 105.79Z" fill="#202124"/>
</g>
</svg>
