<svg width="250" height="375" viewBox="0 0 250 375" fill="none" xmlns="http://www.w3.org/2000/svg">
<rect x="4" y="4" width="242" height="367" rx="12" fill="#2B6CB0"/>
<rect x="4" y="4" width="242" height="367" rx="12" stroke="#2B6CB0" stroke-width="8"/>
<g clip-path="url(#clip0_4124_23576)">
<rect x="52.5" y="52.5" width="145" height="270" rx="13.5" fill="#70B1F4" stroke="#70B1F4" stroke-width="5"/>
<mask id="path-3-outside-1_4124_23576" maskUnits="userSpaceOnUse" x="60.8608" y="65" width="170" height="339" fill="black">
<rect fill="white" x="60.8608" y="65" width="170" height="339"/>
<path d="M192.414 381.664C191.56 381.084 190.736 380.413 189.851 379.925C186.282 378.034 182.683 376.203 179.113 374.343C176.368 372.878 173.592 371.414 171.457 369.065C170.633 368.15 169.931 367.143 170.206 365.466C171.091 365.74 171.945 365.862 172.646 366.289C179.388 370.377 186.13 374.495 192.841 378.644C193.664 379.132 194.427 379.773 195.068 380.474C196.624 382.182 196.318 384.104 194.244 385.111C193.176 385.63 191.926 385.721 190.675 386.026C190.98 386.636 191.346 387.338 191.682 388.07C192.353 389.534 191.895 391.273 190.553 392.158C187.899 393.927 185.153 394.415 182.316 392.493C181.523 391.944 180.669 391.517 179.632 390.876C180.029 392.615 180.334 394.171 180.73 395.696C181.828 399.937 178.442 402.225 174.904 401.065C170.755 399.693 167.643 397.222 166.85 392.432C165.813 386.331 165.661 380.2 165.386 374.068C164.837 361.622 164.288 349.176 163.739 336.699C163.586 333.252 163.373 329.805 163.159 326.236C147.601 328.798 131.922 328.768 116.089 325.626C116.028 326.205 115.937 326.663 115.937 327.12C115.876 332.337 115.845 337.553 115.754 342.77C115.571 352.043 115.54 361.286 115.083 370.56C114.747 377.119 114.015 383.677 113.069 390.175C112.642 393.073 111.422 395.879 110.263 398.625C109.47 400.486 108.066 402.133 105.687 402.011C103.399 401.919 102.392 400.181 101.599 398.381C100.288 395.361 99.1284 392.28 97.8777 389.229C97.7252 388.833 97.5726 388.436 97.3591 387.856C96.4439 388.863 95.6813 389.839 94.7967 390.632C93.5459 391.761 92.2647 392.951 90.831 393.836C88.9091 395.025 86.8348 394.232 86.2247 392.036C85.6145 389.931 85.401 387.734 85.0349 385.691C83.4487 385.599 81.5878 385.599 79.7575 385.355C78.9339 385.233 78.0797 384.745 77.4391 384.226C75.5478 382.732 75.3342 380.383 77.0425 378.705C78.2323 377.515 79.6355 376.447 81.1303 375.654C85.0349 373.549 88.9701 371.536 92.9968 369.645C97.2066 367.631 101.294 365.466 105.016 362.629C106.206 361.713 107.487 361.012 109.165 361.042C109.47 362.629 108.829 363.849 107.822 364.733C106.053 366.289 104.284 367.967 102.24 369.096C97.2676 371.841 92.1122 374.312 87.0178 376.905C85.1875 377.851 83.3571 378.827 81.5878 379.834C80.9472 380.2 80.4286 380.718 79.8185 381.176C81.2218 382.305 85.7061 382.61 86.8653 381.725C87.1093 381.542 87.2313 381.237 87.3839 380.993C87.6889 380.505 87.9635 380.017 88.299 379.559C88.9091 378.735 89.7023 378.034 90.7394 378.644C91.7156 379.254 91.4106 380.261 90.9835 381.115C90.5259 382.06 89.9463 382.945 89.5192 383.921C88.6041 385.904 88.6346 387.795 89.6718 390.083C92.2342 387.643 94.9187 385.447 95.7118 381.816C95.9864 380.596 96.3829 379.62 97.7557 379.467C98.9149 379.345 99.647 380.047 100.227 381.542C101.874 385.691 103.582 389.839 105.29 393.958C105.413 394.263 105.626 394.568 106.175 394.934C106.816 392.554 107.639 390.205 108.066 387.765C110.202 375.593 111.117 363.3 111.3 350.945C111.422 342.922 111.941 334.899 112.307 326.876C112.337 326.236 112.429 325.595 112.52 324.863C110.812 324.375 109.165 323.917 107.548 323.46C97.9997 320.623 88.9091 316.718 80.8862 310.861C71.0635 303.692 64.1388 294.327 62.4 281.942C60.9662 271.784 62.4305 261.93 66.3352 252.413C70.1483 243.139 75.4258 234.689 81.1303 226.514C82.8996 223.951 84.7299 221.419 86.5907 218.918C91.9597 211.688 95.6203 203.604 98.9149 195.307C104.04 182.403 107.609 169.011 111.392 155.65C115.266 141.861 119.964 128.378 124.783 114.895C126.522 110.014 127.651 104.858 128.688 99.7639C129.115 97.6285 128.902 95.2796 128.566 93.0833C127.59 86.3111 129.725 80.6371 133.843 75.3596C137.992 70.0822 143.788 68.0689 149.95 66.7876C155.197 65.6894 160.383 65.5979 165.63 67.4282C171.64 69.5331 174.294 74.1394 175.758 79.7219C176.093 81.9793 175.758 82.2538 175.239 84.4197C175.209 84.5112 175.178 84.5723 175.117 84.6333C174.66 85.2129 173.775 85.1214 173.287 84.5417C173.104 84.3282 172.951 84.0842 172.89 83.8401C172.646 82.925 172.829 81.8878 172.585 81.0031C171.304 76.5799 168.803 73.3768 164.318 71.4855C158.736 69.1365 153.367 70.2347 147.937 71.4855C141.378 72.9802 136.986 77.19 134.088 83.047C132.745 85.762 132.288 88.721 132.776 91.7715C133.752 98.2387 132.471 104.492 130.64 110.593C127.651 120.508 124.326 130.3 121.306 140.214C117.432 153.026 113.74 165.9 109.958 178.712C106.724 189.724 102.942 200.554 97.4506 210.651C94.6746 215.806 91.319 220.687 87.933 225.476C82.503 233.225 77.0425 240.912 72.9548 249.454C69.0196 257.66 66.5792 266.262 66.4267 275.414C66.2742 284.077 69.3552 291.551 75.0597 297.927C82.9911 306.804 93.3324 311.807 104.253 315.864C112.154 318.792 120.421 320.226 128.749 321.324C143.514 323.277 158.248 322.545 172.433 318.304C190.156 312.996 204.616 302.594 215.384 287.28C219.442 281.515 222.736 275.444 225.085 268.825C225.39 267.94 225.817 266.994 226.458 266.323C226.885 265.866 227.922 265.53 228.38 265.744C228.929 266.018 229.417 266.994 229.386 267.635C229.295 269.069 228.898 270.472 228.532 271.875C226.61 279.532 222.492 285.999 217.794 292.222C205.562 308.421 189.211 318.518 170.084 324.466C169.138 324.771 167.857 324.771 167.338 325.412C166.881 325.992 167.216 327.242 167.247 328.219C167.552 335.448 167.887 342.678 168.223 349.908C168.62 357.839 168.894 365.801 169.474 373.702C169.901 379.651 170.755 385.569 171.365 391.487C171.609 393.866 173.134 395.239 174.965 396.337C175.453 396.642 176.063 396.551 176.551 396.337C177.131 395.727 177.039 395.391 176.978 394.812C176.704 392.676 176.368 390.571 176.002 388.467C175.91 387.948 175.605 387.429 175.361 386.941C175.148 386.514 174.721 386.148 174.66 385.721C174.599 385.233 174.66 384.501 174.995 384.226C175.3 383.952 176.032 384.074 176.52 384.196C176.887 384.287 177.161 384.653 177.497 384.867C179.876 386.362 182.286 387.856 184.696 389.29C185.092 389.534 185.52 389.717 185.977 389.778C187.624 390.083 188.326 389.29 187.685 387.948C187.136 386.758 186.496 385.599 185.825 384.47C185.642 384.165 185.215 384.043 184.909 383.83C184.238 383.433 183.354 383.189 182.927 382.61C182.53 382.03 182.316 381.023 182.53 380.383C182.835 379.559 183.72 379.925 184.482 380.139C186.74 380.779 189.058 381.298 191.346 381.847C191.621 381.908 191.926 381.816 192.231 381.816C192.322 381.908 192.353 381.786 192.414 381.664Z"/>
</mask>
<path d="M192.414 381.664C191.56 381.084 190.736 380.413 189.851 379.925C186.282 378.034 182.683 376.203 179.113 374.343C176.368 372.878 173.592 371.414 171.457 369.065C170.633 368.15 169.931 367.143 170.206 365.466C171.091 365.74 171.945 365.862 172.646 366.289C179.388 370.377 186.13 374.495 192.841 378.644C193.664 379.132 194.427 379.773 195.068 380.474C196.624 382.182 196.318 384.104 194.244 385.111C193.176 385.63 191.926 385.721 190.675 386.026C190.98 386.636 191.346 387.338 191.682 388.07C192.353 389.534 191.895 391.273 190.553 392.158C187.899 393.927 185.153 394.415 182.316 392.493C181.523 391.944 180.669 391.517 179.632 390.876C180.029 392.615 180.334 394.171 180.73 395.696C181.828 399.937 178.442 402.225 174.904 401.065C170.755 399.693 167.643 397.222 166.85 392.432C165.813 386.331 165.661 380.2 165.386 374.068C164.837 361.622 164.288 349.176 163.739 336.699C163.586 333.252 163.373 329.805 163.159 326.236C147.601 328.798 131.922 328.768 116.089 325.626C116.028 326.205 115.937 326.663 115.937 327.12C115.876 332.337 115.845 337.553 115.754 342.77C115.571 352.043 115.54 361.286 115.083 370.56C114.747 377.119 114.015 383.677 113.069 390.175C112.642 393.073 111.422 395.879 110.263 398.625C109.47 400.486 108.066 402.133 105.687 402.011C103.399 401.919 102.392 400.181 101.599 398.381C100.288 395.361 99.1284 392.28 97.8777 389.229C97.7252 388.833 97.5726 388.436 97.3591 387.856C96.4439 388.863 95.6813 389.839 94.7967 390.632C93.5459 391.761 92.2647 392.951 90.831 393.836C88.9091 395.025 86.8348 394.232 86.2247 392.036C85.6145 389.931 85.401 387.734 85.0349 385.691C83.4487 385.599 81.5878 385.599 79.7575 385.355C78.9339 385.233 78.0797 384.745 77.4391 384.226C75.5478 382.732 75.3342 380.383 77.0425 378.705C78.2323 377.515 79.6355 376.447 81.1303 375.654C85.0349 373.549 88.9701 371.536 92.9968 369.645C97.2066 367.631 101.294 365.466 105.016 362.629C106.206 361.713 107.487 361.012 109.165 361.042C109.47 362.629 108.829 363.849 107.822 364.733C106.053 366.289 104.284 367.967 102.24 369.096C97.2676 371.841 92.1122 374.312 87.0178 376.905C85.1875 377.851 83.3571 378.827 81.5878 379.834C80.9472 380.2 80.4286 380.718 79.8185 381.176C81.2218 382.305 85.7061 382.61 86.8653 381.725C87.1093 381.542 87.2313 381.237 87.3839 380.993C87.6889 380.505 87.9635 380.017 88.299 379.559C88.9091 378.735 89.7023 378.034 90.7394 378.644C91.7156 379.254 91.4106 380.261 90.9835 381.115C90.5259 382.06 89.9463 382.945 89.5192 383.921C88.6041 385.904 88.6346 387.795 89.6718 390.083C92.2342 387.643 94.9187 385.447 95.7118 381.816C95.9864 380.596 96.3829 379.62 97.7557 379.467C98.9149 379.345 99.647 380.047 100.227 381.542C101.874 385.691 103.582 389.839 105.29 393.958C105.413 394.263 105.626 394.568 106.175 394.934C106.816 392.554 107.639 390.205 108.066 387.765C110.202 375.593 111.117 363.3 111.3 350.945C111.422 342.922 111.941 334.899 112.307 326.876C112.337 326.236 112.429 325.595 112.52 324.863C110.812 324.375 109.165 323.917 107.548 323.46C97.9997 320.623 88.9091 316.718 80.8862 310.861C71.0635 303.692 64.1388 294.327 62.4 281.942C60.9662 271.784 62.4305 261.93 66.3352 252.413C70.1483 243.139 75.4258 234.689 81.1303 226.514C82.8996 223.951 84.7299 221.419 86.5907 218.918C91.9597 211.688 95.6203 203.604 98.9149 195.307C104.04 182.403 107.609 169.011 111.392 155.65C115.266 141.861 119.964 128.378 124.783 114.895C126.522 110.014 127.651 104.858 128.688 99.7639C129.115 97.6285 128.902 95.2796 128.566 93.0833C127.59 86.3111 129.725 80.6371 133.843 75.3596C137.992 70.0822 143.788 68.0689 149.95 66.7876C155.197 65.6894 160.383 65.5979 165.63 67.4282C171.64 69.5331 174.294 74.1394 175.758 79.7219C176.093 81.9793 175.758 82.2538 175.239 84.4197C175.209 84.5112 175.178 84.5723 175.117 84.6333C174.66 85.2129 173.775 85.1214 173.287 84.5417C173.104 84.3282 172.951 84.0842 172.89 83.8401C172.646 82.925 172.829 81.8878 172.585 81.0031C171.304 76.5799 168.803 73.3768 164.318 71.4855C158.736 69.1365 153.367 70.2347 147.937 71.4855C141.378 72.9802 136.986 77.19 134.088 83.047C132.745 85.762 132.288 88.721 132.776 91.7715C133.752 98.2387 132.471 104.492 130.64 110.593C127.651 120.508 124.326 130.3 121.306 140.214C117.432 153.026 113.74 165.9 109.958 178.712C106.724 189.724 102.942 200.554 97.4506 210.651C94.6746 215.806 91.319 220.687 87.933 225.476C82.503 233.225 77.0425 240.912 72.9548 249.454C69.0196 257.66 66.5792 266.262 66.4267 275.414C66.2742 284.077 69.3552 291.551 75.0597 297.927C82.9911 306.804 93.3324 311.807 104.253 315.864C112.154 318.792 120.421 320.226 128.749 321.324C143.514 323.277 158.248 322.545 172.433 318.304C190.156 312.996 204.616 302.594 215.384 287.28C219.442 281.515 222.736 275.444 225.085 268.825C225.39 267.94 225.817 266.994 226.458 266.323C226.885 265.866 227.922 265.53 228.38 265.744C228.929 266.018 229.417 266.994 229.386 267.635C229.295 269.069 228.898 270.472 228.532 271.875C226.61 279.532 222.492 285.999 217.794 292.222C205.562 308.421 189.211 318.518 170.084 324.466C169.138 324.771 167.857 324.771 167.338 325.412C166.881 325.992 167.216 327.242 167.247 328.219C167.552 335.448 167.887 342.678 168.223 349.908C168.62 357.839 168.894 365.801 169.474 373.702C169.901 379.651 170.755 385.569 171.365 391.487C171.609 393.866 173.134 395.239 174.965 396.337C175.453 396.642 176.063 396.551 176.551 396.337C177.131 395.727 177.039 395.391 176.978 394.812C176.704 392.676 176.368 390.571 176.002 388.467C175.91 387.948 175.605 387.429 175.361 386.941C175.148 386.514 174.721 386.148 174.66 385.721C174.599 385.233 174.66 384.501 174.995 384.226C175.3 383.952 176.032 384.074 176.52 384.196C176.887 384.287 177.161 384.653 177.497 384.867C179.876 386.362 182.286 387.856 184.696 389.29C185.092 389.534 185.52 389.717 185.977 389.778C187.624 390.083 188.326 389.29 187.685 387.948C187.136 386.758 186.496 385.599 185.825 384.47C185.642 384.165 185.215 384.043 184.909 383.83C184.238 383.433 183.354 383.189 182.927 382.61C182.53 382.03 182.316 381.023 182.53 380.383C182.835 379.559 183.72 379.925 184.482 380.139C186.74 380.779 189.058 381.298 191.346 381.847C191.621 381.908 191.926 381.816 192.231 381.816C192.322 381.908 192.353 381.786 192.414 381.664Z" fill="#2B6CB0"/>
<path d="M192.414 381.664C191.56 381.084 190.736 380.413 189.851 379.925C186.282 378.034 182.683 376.203 179.113 374.343C176.368 372.878 173.592 371.414 171.457 369.065C170.633 368.15 169.931 367.143 170.206 365.466C171.091 365.74 171.945 365.862 172.646 366.289C179.388 370.377 186.13 374.495 192.841 378.644C193.664 379.132 194.427 379.773 195.068 380.474C196.624 382.182 196.318 384.104 194.244 385.111C193.176 385.63 191.926 385.721 190.675 386.026C190.98 386.636 191.346 387.338 191.682 388.07C192.353 389.534 191.895 391.273 190.553 392.158C187.899 393.927 185.153 394.415 182.316 392.493C181.523 391.944 180.669 391.517 179.632 390.876C180.029 392.615 180.334 394.171 180.73 395.696C181.828 399.937 178.442 402.225 174.904 401.065C170.755 399.693 167.643 397.222 166.85 392.432C165.813 386.331 165.661 380.2 165.386 374.068C164.837 361.622 164.288 349.176 163.739 336.699C163.586 333.252 163.373 329.805 163.159 326.236C147.601 328.798 131.922 328.768 116.089 325.626C116.028 326.205 115.937 326.663 115.937 327.12C115.876 332.337 115.845 337.553 115.754 342.77C115.571 352.043 115.54 361.286 115.083 370.56C114.747 377.119 114.015 383.677 113.069 390.175C112.642 393.073 111.422 395.879 110.263 398.625C109.47 400.486 108.066 402.133 105.687 402.011C103.399 401.919 102.392 400.181 101.599 398.381C100.288 395.361 99.1284 392.28 97.8777 389.229C97.7252 388.833 97.5726 388.436 97.3591 387.856C96.4439 388.863 95.6813 389.839 94.7967 390.632C93.5459 391.761 92.2647 392.951 90.831 393.836C88.9091 395.025 86.8348 394.232 86.2247 392.036C85.6145 389.931 85.401 387.734 85.0349 385.691C83.4487 385.599 81.5878 385.599 79.7575 385.355C78.9339 385.233 78.0797 384.745 77.4391 384.226C75.5478 382.732 75.3342 380.383 77.0425 378.705C78.2323 377.515 79.6355 376.447 81.1303 375.654C85.0349 373.549 88.9701 371.536 92.9968 369.645C97.2066 367.631 101.294 365.466 105.016 362.629C106.206 361.713 107.487 361.012 109.165 361.042C109.47 362.629 108.829 363.849 107.822 364.733C106.053 366.289 104.284 367.967 102.24 369.096C97.2676 371.841 92.1122 374.312 87.0178 376.905C85.1875 377.851 83.3571 378.827 81.5878 379.834C80.9472 380.2 80.4286 380.718 79.8185 381.176C81.2218 382.305 85.7061 382.61 86.8653 381.725C87.1093 381.542 87.2313 381.237 87.3839 380.993C87.6889 380.505 87.9635 380.017 88.299 379.559C88.9091 378.735 89.7023 378.034 90.7394 378.644C91.7156 379.254 91.4106 380.261 90.9835 381.115C90.5259 382.06 89.9463 382.945 89.5192 383.921C88.6041 385.904 88.6346 387.795 89.6718 390.083C92.2342 387.643 94.9187 385.447 95.7118 381.816C95.9864 380.596 96.3829 379.62 97.7557 379.467C98.9149 379.345 99.647 380.047 100.227 381.542C101.874 385.691 103.582 389.839 105.29 393.958C105.413 394.263 105.626 394.568 106.175 394.934C106.816 392.554 107.639 390.205 108.066 387.765C110.202 375.593 111.117 363.3 111.3 350.945C111.422 342.922 111.941 334.899 112.307 326.876C112.337 326.236 112.429 325.595 112.52 324.863C110.812 324.375 109.165 323.917 107.548 323.46C97.9997 320.623 88.9091 316.718 80.8862 310.861C71.0635 303.692 64.1388 294.327 62.4 281.942C60.9662 271.784 62.4305 261.93 66.3352 252.413C70.1483 243.139 75.4258 234.689 81.1303 226.514C82.8996 223.951 84.7299 221.419 86.5907 218.918C91.9597 211.688 95.6203 203.604 98.9149 195.307C104.04 182.403 107.609 169.011 111.392 155.65C115.266 141.861 119.964 128.378 124.783 114.895C126.522 110.014 127.651 104.858 128.688 99.7639C129.115 97.6285 128.902 95.2796 128.566 93.0833C127.59 86.3111 129.725 80.6371 133.843 75.3596C137.992 70.0822 143.788 68.0689 149.95 66.7876C155.197 65.6894 160.383 65.5979 165.63 67.4282C171.64 69.5331 174.294 74.1394 175.758 79.7219C176.093 81.9793 175.758 82.2538 175.239 84.4197C175.209 84.5112 175.178 84.5723 175.117 84.6333C174.66 85.2129 173.775 85.1214 173.287 84.5417C173.104 84.3282 172.951 84.0842 172.89 83.8401C172.646 82.925 172.829 81.8878 172.585 81.0031C171.304 76.5799 168.803 73.3768 164.318 71.4855C158.736 69.1365 153.367 70.2347 147.937 71.4855C141.378 72.9802 136.986 77.19 134.088 83.047C132.745 85.762 132.288 88.721 132.776 91.7715C133.752 98.2387 132.471 104.492 130.64 110.593C127.651 120.508 124.326 130.3 121.306 140.214C117.432 153.026 113.74 165.9 109.958 178.712C106.724 189.724 102.942 200.554 97.4506 210.651C94.6746 215.806 91.319 220.687 87.933 225.476C82.503 233.225 77.0425 240.912 72.9548 249.454C69.0196 257.66 66.5792 266.262 66.4267 275.414C66.2742 284.077 69.3552 291.551 75.0597 297.927C82.9911 306.804 93.3324 311.807 104.253 315.864C112.154 318.792 120.421 320.226 128.749 321.324C143.514 323.277 158.248 322.545 172.433 318.304C190.156 312.996 204.616 302.594 215.384 287.28C219.442 281.515 222.736 275.444 225.085 268.825C225.39 267.94 225.817 266.994 226.458 266.323C226.885 265.866 227.922 265.53 228.38 265.744C228.929 266.018 229.417 266.994 229.386 267.635C229.295 269.069 228.898 270.472 228.532 271.875C226.61 279.532 222.492 285.999 217.794 292.222C205.562 308.421 189.211 318.518 170.084 324.466C169.138 324.771 167.857 324.771 167.338 325.412C166.881 325.992 167.216 327.242 167.247 328.219C167.552 335.448 167.887 342.678 168.223 349.908C168.62 357.839 168.894 365.801 169.474 373.702C169.901 379.651 170.755 385.569 171.365 391.487C171.609 393.866 173.134 395.239 174.965 396.337C175.453 396.642 176.063 396.551 176.551 396.337C177.131 395.727 177.039 395.391 176.978 394.812C176.704 392.676 176.368 390.571 176.002 388.467C175.91 387.948 175.605 387.429 175.361 386.941C175.148 386.514 174.721 386.148 174.66 385.721C174.599 385.233 174.66 384.501 174.995 384.226C175.3 383.952 176.032 384.074 176.52 384.196C176.887 384.287 177.161 384.653 177.497 384.867C179.876 386.362 182.286 387.856 184.696 389.29C185.092 389.534 185.52 389.717 185.977 389.778C187.624 390.083 188.326 389.29 187.685 387.948C187.136 386.758 186.496 385.599 185.825 384.47C185.642 384.165 185.215 384.043 184.909 383.83C184.238 383.433 183.354 383.189 182.927 382.61C182.53 382.03 182.316 381.023 182.53 380.383C182.835 379.559 183.72 379.925 184.482 380.139C186.74 380.779 189.058 381.298 191.346 381.847C191.621 381.908 191.926 381.816 192.231 381.816C192.322 381.908 192.353 381.786 192.414 381.664Z" stroke="#2B6CB0" stroke-width="2" mask="url(#path-3-outside-1_4124_23576)"/>
<path d="M153.665 122.628C153.705 122.768 153.759 122.917 153.819 123.08C153.878 123.238 153.945 123.416 154.002 123.589C154.112 123.922 154.223 124.349 154.13 124.766L154.128 124.773C153.842 125.981 153.227 127.192 152.793 128.262L152.791 128.267C150.767 133.111 148.585 137.806 146.821 142.702C143.351 152.351 140.551 162.184 138.359 172.199L138.358 172.2C137.565 175.8 137.178 179.393 137.723 183.021L137.844 183.746V183.75C138.451 187.164 140.693 189.689 144.066 190.583C145.072 190.846 147.201 191.126 149.359 191.289C151.531 191.454 153.623 191.493 154.585 191.309L154.854 192.268C154.714 192.321 153.506 192.694 152.341 193.055C151.75 193.238 151.159 193.421 150.701 193.564C150.472 193.635 150.277 193.696 150.132 193.742C150.059 193.765 150 193.785 149.955 193.799C149.933 193.806 149.915 193.812 149.901 193.817C149.893 193.819 149.888 193.821 149.885 193.822C149.322 194.054 148.939 194.426 148.486 194.871C148.042 195.308 147.528 195.819 146.754 196.136L146.753 196.137C145.661 196.581 144.598 196.523 143.663 196.482C142.702 196.439 141.868 196.413 141.026 196.774L140.805 196.869L140.592 196.754C134.68 193.564 130.939 187.709 131.761 180.91H131.762C132.836 171.032 135.626 161.656 138.956 152.43C140.036 149.433 141.033 146.405 142.04 143.367C143.047 140.332 144.064 137.29 145.181 134.276V134.275C146.322 131.221 147.93 128.314 149.383 125.439C149.797 124.611 150.377 123.735 151.07 123.074L151.074 123.071C151.377 122.789 151.763 122.649 152.091 122.553C152.256 122.504 152.431 122.461 152.584 122.421C152.743 122.38 152.887 122.34 153.019 122.294L153.52 122.118L153.665 122.628Z" fill="#2B6CB0" stroke="#2B6CB0"/>
<path d="M219.61 159.145C219.963 159.02 220.442 158.991 220.867 159.043C221.086 159.07 221.312 159.121 221.518 159.204C221.694 159.276 221.881 159.381 222.03 159.54L222.092 159.613L222.095 159.616C222.241 159.807 222.313 160.043 222.348 160.251C222.384 160.468 222.388 160.703 222.368 160.93C222.33 161.357 222.192 161.876 221.885 162.209L221.58 162.545L221.572 162.554C220.361 163.825 219.04 165.212 217.486 166.197C215.05 167.78 212.615 169.424 210.232 171.012L210.233 171.013C202.827 176.011 195.131 181.195 186.659 184.756H186.657C182.613 186.441 178.387 187.881 174.335 189.282L174.329 189.284C172.138 190.015 169.885 190.805 167.691 191.597L167.692 191.598C161.255 193.947 154.947 196.231 148.609 198.699L148.61 198.7C146.974 199.355 145.389 200.28 143.828 201.198L143.827 201.198L143.133 201.622L143.125 201.627C136.891 205.264 133.214 210.964 131.952 219.105L131.838 219.9C131.513 222.353 131.747 224.874 132.553 227.529H132.552C134.166 232.823 136.712 238.074 140.273 243.534L141 244.63C142.696 247.16 145.059 249.47 148.386 251.919H148.385C155.575 257.168 163.555 261.384 172.11 264.388H172.111C180.438 267.345 189.721 268.139 201.317 266.926C201.54 266.894 201.769 266.87 201.986 266.848C202.209 266.825 202.421 266.804 202.623 266.775L202.632 266.774L202.642 266.773C207.26 266.283 211.916 265.799 216.202 264.091C219.789 262.632 223.38 260.989 226.825 259.373L226.83 259.371C227.33 259.144 227.831 258.909 228.335 258.672C228.838 258.436 229.344 258.198 229.851 257.968L229.853 257.967C230.713 257.581 231.545 257.106 232.377 256.644L232.379 256.643C232.975 256.315 233.586 255.98 234.228 255.672L234.295 255.627L234.316 255.613L234.341 255.6C234.676 255.425 235.182 255.159 235.712 255.111C235.991 255.085 236.292 255.117 236.586 255.258C236.843 255.381 237.069 255.576 237.261 255.838L237.341 255.955L237.345 255.961C237.581 256.34 237.685 256.717 237.669 257.082C237.653 257.444 237.522 257.752 237.356 258.001C237.041 258.476 236.562 258.789 236.346 258.928L236.347 258.929C223.203 267.814 211.215 272.159 198.651 272.529L198.65 272.528C197.767 272.558 196.884 272.589 196.031 272.619H196.03C194.262 272.68 192.454 272.741 190.645 272.741C189.204 272.741 187.785 272.711 186.331 272.587C179.412 272.003 172.678 270.281 166.345 267.514H166.344C158.564 264.097 150.332 260.26 143.136 254.356C140.277 252.019 138.35 250.035 136.883 247.975V247.974C130.868 239.565 127.441 231.465 126.422 223.19L126.423 223.189C125.772 217.978 126.513 213.566 128.678 209.676L128.679 209.675C130.566 206.311 131.973 203.849 133.658 201.74C135.225 199.78 137.024 198.136 139.652 196.338L139.351 196.156L140.229 195.766L140.504 195.644C140.841 195.491 141.445 195.219 142.26 194.826L142.265 194.823C145.922 193.117 153.606 189.565 160.017 187.51L164.617 186.028C166.153 185.528 167.685 185.025 169.193 184.522C171.758 183.667 174.415 182.812 177.036 181.958H177.038C183.554 179.867 190.17 176.803 197.282 172.578L200.463 170.662C203.645 168.729 206.823 166.757 209.936 164.834C212.133 163.461 214.451 162.027 216.678 160.655L217.314 160.268C217.994 159.865 218.789 159.435 219.61 159.145Z" fill="#2B6CB0" stroke="#2B6CB0"/>
<mask id="path-6-outside-2_4124_23576" maskUnits="userSpaceOnUse" x="143.256" y="86.5413" width="31" height="46" fill="black">
<rect fill="white" x="143.256" y="86.5413" width="31" height="46"/>
<path fill-rule="evenodd" clip-rule="evenodd" d="M147.51 97.7809C145.558 98.5741 144.063 99.9163 144.277 102.174C144.338 104.95 145.192 106.17 146.992 107.299C150.286 109.464 152.025 112.607 153.032 116.359C153.733 118.921 154.74 121.423 155.869 123.833C157.15 126.609 159.255 128.774 161.848 130.361C166.271 133.045 170.725 130.727 171.121 125.602C171.182 124.687 171.243 123.741 171.121 122.856C170.959 121.741 170.816 120.617 170.673 119.49C170.252 116.176 169.828 112.842 168.894 109.678C167.827 105.956 168.742 103.272 171.182 100.74C171.277 100.645 171.383 100.554 171.49 100.461C171.729 100.256 171.971 100.047 172.098 99.7943C172.494 99.0927 172.921 98.33 173.013 97.5369C173.318 94.3949 171.182 92.1375 167.613 92.1985C165.142 92.2595 163.373 91.5884 161.909 89.514C160.445 87.4701 158.584 87.1346 156.296 87.9582C153.855 88.8429 153.215 89.7885 153.154 92.6255V93.8153C153.123 95.4625 152.483 96.3167 150.896 96.7743C150.52 96.8861 150.14 96.9844 149.761 97.0827C149.002 97.2793 148.242 97.4759 147.51 97.7809ZM167.643 126.426C167.46 127.494 166.728 128.104 165.477 128.287C165.211 128.154 164.938 128.032 164.665 127.911C164.064 127.643 163.46 127.374 162.915 126.975C160.2 125.084 158.552 122.339 157.424 119.288C157.012 118.175 156.631 117.053 156.249 115.932C155.868 114.811 155.487 113.69 155.075 112.577C153.946 109.496 152.024 106.994 149.279 105.134C148.089 104.34 147.082 103.456 147.296 101.869C147.357 101.442 147.662 100.832 148.028 100.68C149.187 100.161 150.377 99.7036 151.597 99.3985C154.465 98.6359 155.898 96.9581 156.081 93.9991C156.081 93.8908 156.078 93.781 156.075 93.671C156.065 93.2854 156.054 92.8976 156.173 92.5653C156.356 92.0467 156.661 91.2841 157.058 91.1926C157.729 91.0095 158.613 91.0705 159.223 91.4061C159.695 91.6633 160.046 92.1163 160.393 92.564C160.54 92.7535 160.686 92.942 160.84 93.1144C162.305 94.7617 164.043 95.7989 166.301 95.9514C167.033 96.0124 167.795 96.1344 168.497 96.3785C169.504 96.714 169.565 97.2021 168.894 98.0258C168.769 98.1855 168.644 98.3447 168.52 98.5036C167.67 99.5896 166.828 100.664 166.057 101.808C164.562 104.035 164.318 106.506 165.203 108.977C166.819 113.492 167.429 118.159 167.857 122.888C167.979 124.077 167.826 125.267 167.643 126.426Z"/>
</mask>
<path fill-rule="evenodd" clip-rule="evenodd" d="M147.51 97.7809C145.558 98.5741 144.063 99.9163 144.277 102.174C144.338 104.95 145.192 106.17 146.992 107.299C150.286 109.464 152.025 112.607 153.032 116.359C153.733 118.921 154.74 121.423 155.869 123.833C157.15 126.609 159.255 128.774 161.848 130.361C166.271 133.045 170.725 130.727 171.121 125.602C171.182 124.687 171.243 123.741 171.121 122.856C170.959 121.741 170.816 120.617 170.673 119.49C170.252 116.176 169.828 112.842 168.894 109.678C167.827 105.956 168.742 103.272 171.182 100.74C171.277 100.645 171.383 100.554 171.49 100.461C171.729 100.256 171.971 100.047 172.098 99.7943C172.494 99.0927 172.921 98.33 173.013 97.5369C173.318 94.3949 171.182 92.1375 167.613 92.1985C165.142 92.2595 163.373 91.5884 161.909 89.514C160.445 87.4701 158.584 87.1346 156.296 87.9582C153.855 88.8429 153.215 89.7885 153.154 92.6255V93.8153C153.123 95.4625 152.483 96.3167 150.896 96.7743C150.52 96.8861 150.14 96.9844 149.761 97.0827C149.002 97.2793 148.242 97.4759 147.51 97.7809ZM167.643 126.426C167.46 127.494 166.728 128.104 165.477 128.287C165.211 128.154 164.938 128.032 164.665 127.911C164.064 127.643 163.46 127.374 162.915 126.975C160.2 125.084 158.552 122.339 157.424 119.288C157.012 118.175 156.631 117.053 156.249 115.932C155.868 114.811 155.487 113.69 155.075 112.577C153.946 109.496 152.024 106.994 149.279 105.134C148.089 104.34 147.082 103.456 147.296 101.869C147.357 101.442 147.662 100.832 148.028 100.68C149.187 100.161 150.377 99.7036 151.597 99.3985C154.465 98.6359 155.898 96.9581 156.081 93.9991C156.081 93.8908 156.078 93.781 156.075 93.671C156.065 93.2854 156.054 92.8976 156.173 92.5653C156.356 92.0467 156.661 91.2841 157.058 91.1926C157.729 91.0095 158.613 91.0705 159.223 91.4061C159.695 91.6633 160.046 92.1163 160.393 92.564C160.54 92.7535 160.686 92.942 160.84 93.1144C162.305 94.7617 164.043 95.7989 166.301 95.9514C167.033 96.0124 167.795 96.1344 168.497 96.3785C169.504 96.714 169.565 97.2021 168.894 98.0258C168.769 98.1855 168.644 98.3447 168.52 98.5036C167.67 99.5896 166.828 100.664 166.057 101.808C164.562 104.035 164.318 106.506 165.203 108.977C166.819 113.492 167.429 118.159 167.857 122.888C167.979 124.077 167.826 125.267 167.643 126.426Z" fill="#2B6CB0"/>
<path d="M144.277 102.174L145.276 102.152L145.276 102.116L145.272 102.08L144.277 102.174ZM147.51 97.7809L147.887 98.7074L147.895 98.704L147.51 97.7809ZM146.992 107.299L147.541 106.463L147.532 106.457L147.523 106.451L146.992 107.299ZM153.032 116.359L152.066 116.618L152.067 116.623L153.032 116.359ZM155.869 123.833L156.777 123.413L156.774 123.408L155.869 123.833ZM161.848 130.361L161.326 131.214L161.329 131.216L161.848 130.361ZM171.121 125.602L172.118 125.679L172.119 125.668L171.121 125.602ZM171.121 122.856L172.112 122.72L172.111 122.712L171.121 122.856ZM170.673 119.49L171.665 119.364L171.665 119.364L170.673 119.49ZM168.894 109.678L167.933 109.954L167.935 109.961L168.894 109.678ZM171.182 100.74L170.475 100.033L170.469 100.039L170.462 100.046L171.182 100.74ZM171.49 100.461L170.838 99.7039L170.838 99.7039L171.49 100.461ZM172.098 99.7943L171.227 99.3022L171.214 99.3244L171.203 99.3471L172.098 99.7943ZM173.013 97.5369L174.006 97.6515L174.007 97.6425L174.008 97.6335L173.013 97.5369ZM167.613 92.1985L167.596 91.1986L167.589 91.1988L167.613 92.1985ZM161.909 89.514L162.726 88.9373L162.722 88.9316L161.909 89.514ZM156.296 87.9582L155.957 87.0173L155.955 87.0181L156.296 87.9582ZM153.154 92.6255L152.154 92.604L152.154 92.6148V92.6255H153.154ZM153.154 93.8153L154.154 93.8338L154.154 93.8245V93.8153H153.154ZM150.896 96.7743L150.619 95.8134L150.611 95.8157L150.896 96.7743ZM165.477 128.287L165.03 129.182L165.311 129.322L165.622 129.277L165.477 128.287ZM167.643 126.426L168.629 126.595L168.631 126.582L167.643 126.426ZM164.665 127.911L164.258 128.824L164.258 128.824L164.665 127.911ZM162.915 126.975L163.505 126.168L163.496 126.161L163.486 126.155L162.915 126.975ZM157.424 119.288L156.486 119.635L156.486 119.635L157.424 119.288ZM155.075 112.577L154.136 112.921L154.137 112.924L155.075 112.577ZM149.279 105.134L149.84 104.306L149.833 104.301L149.279 105.134ZM147.296 101.869L146.306 101.728L146.305 101.736L147.296 101.869ZM148.028 100.68L148.413 101.603L148.425 101.598L148.436 101.593L148.028 100.68ZM151.597 99.3985L151.84 100.369L151.847 100.367L151.854 100.365L151.597 99.3985ZM156.081 93.9991L157.08 94.0608L157.081 94.03V93.9991H156.081ZM156.075 93.671L157.075 93.6437L157.075 93.6437L156.075 93.671ZM156.173 92.5653L157.115 92.9016L157.116 92.8981L156.173 92.5653ZM157.058 91.1926L157.282 92.167L157.302 92.1625L157.321 92.1573L157.058 91.1926ZM159.223 91.4061L158.742 92.2823L158.745 92.284L159.223 91.4061ZM160.393 92.564L161.184 91.9514L161.184 91.9514L160.393 92.564ZM160.84 93.1144L161.588 92.45L161.586 92.4476L160.84 93.1144ZM166.301 95.9514L166.384 94.9549L166.376 94.9542L166.368 94.9537L166.301 95.9514ZM168.497 96.3785L168.169 97.3231L168.181 97.3272L168.497 96.3785ZM168.894 98.0258L168.118 97.3941L168.112 97.4022L168.105 97.4105L168.894 98.0258ZM168.52 98.5036L169.307 99.1201L169.307 99.1201L168.52 98.5036ZM166.057 101.808L165.228 101.249L165.226 101.251L166.057 101.808ZM165.203 108.977L164.261 109.314L164.261 109.314L165.203 108.977ZM167.857 122.888L166.86 122.978L166.862 122.99L167.857 122.888ZM144.277 102.174L145.272 102.08C145.191 101.217 145.429 100.579 145.853 100.064C146.3 99.5219 146.997 99.0689 147.887 98.7074L147.51 97.7809L147.134 96.8545C146.071 97.2862 145.045 97.9008 144.31 98.7921C143.552 99.7113 143.149 100.873 143.281 102.268L144.277 102.174ZM146.992 107.299L147.523 106.451C146.699 105.935 146.187 105.456 145.854 104.864C145.517 104.265 145.305 103.447 145.276 102.152L144.277 102.174L143.277 102.196C143.309 103.677 143.555 104.857 144.111 105.844C144.669 106.838 145.484 107.534 146.46 108.146L146.992 107.299ZM153.032 116.359L153.998 116.1C152.95 112.197 151.104 108.806 147.541 106.463L146.992 107.299L146.442 108.134C149.468 110.123 151.1 113.016 152.066 116.618L153.032 116.359ZM155.869 123.833L156.774 123.408C155.66 121.03 154.678 118.584 153.996 116.095L153.032 116.359L152.067 116.623C152.789 119.258 153.82 121.815 154.963 124.257L155.869 123.833ZM161.848 130.361L162.37 129.508C159.918 128.008 157.963 125.983 156.777 123.413L155.869 123.833L154.961 124.252C156.337 127.234 158.591 129.541 161.326 131.214L161.848 130.361ZM171.121 125.602L170.124 125.525C169.948 127.807 168.89 129.323 167.536 130.021C166.184 130.718 164.337 130.702 162.367 129.506L161.848 130.361L161.329 131.216C163.782 132.704 166.373 132.871 168.453 131.799C170.531 130.727 171.898 128.521 172.118 125.679L171.121 125.602ZM171.121 122.856L170.131 122.993C170.236 123.759 170.186 124.601 170.124 125.535L171.121 125.602L172.119 125.668C172.179 124.772 172.25 123.723 172.112 122.72L171.121 122.856ZM170.673 119.49L169.681 119.616C169.824 120.741 169.968 121.875 170.132 123.001L171.121 122.856L172.111 122.712C171.95 121.608 171.808 120.492 171.665 119.364L170.673 119.49ZM168.894 109.678L167.935 109.961C168.842 113.035 169.258 116.288 169.681 119.616L170.673 119.49L171.665 119.364C171.245 116.065 170.814 112.65 169.854 109.395L168.894 109.678ZM171.182 100.74L170.462 100.046C169.164 101.393 168.216 102.839 167.759 104.497C167.3 106.162 167.359 107.954 167.933 109.954L168.894 109.678L169.856 109.402C169.362 107.681 169.345 106.27 169.687 105.029C170.031 103.781 170.761 102.618 171.902 101.434L171.182 100.74ZM171.49 100.461L170.838 99.7039C170.736 99.7913 170.601 99.9074 170.475 100.033L171.182 100.74L171.889 101.447C171.953 101.383 172.031 101.316 172.143 101.219L171.49 100.461ZM172.098 99.7943L171.203 99.3471C171.204 99.3454 171.2 99.3536 171.186 99.3721C171.172 99.3907 171.15 99.4161 171.118 99.4493C171.049 99.5211 170.963 99.5955 170.838 99.7039L171.49 100.461L172.143 101.219C172.34 101.049 172.758 100.708 172.992 100.242L172.098 99.7943ZM173.013 97.5369L172.019 97.4223C171.955 97.9787 171.645 98.5632 171.227 99.3022L172.098 99.7943L172.968 100.286C173.344 99.6222 173.887 98.6814 174.006 97.6515L173.013 97.5369ZM167.613 92.1985L167.63 93.1983C169.202 93.1715 170.344 93.6533 171.056 94.3708C171.761 95.0819 172.145 96.1251 172.017 97.4403L173.013 97.5369L174.008 97.6335C174.185 95.8066 173.654 94.1501 172.476 92.9623C171.304 91.7808 169.594 91.1645 167.596 91.1986L167.613 92.1985ZM161.909 89.514L161.092 90.0907C161.909 91.2481 162.849 92.0644 163.974 92.5693C165.088 93.0696 166.31 93.231 167.638 93.1982L167.613 92.1985L167.589 91.1988C166.446 91.227 165.547 91.0833 164.793 90.7447C164.049 90.4107 163.373 89.8543 162.726 88.9373L161.909 89.514ZM156.296 87.9582L156.635 88.8991C157.665 88.5283 158.489 88.4589 159.166 88.6302C159.824 88.7969 160.47 89.2234 161.096 90.0964L161.909 89.514L162.722 88.9316C161.883 87.7608 160.866 86.9975 159.656 86.6914C158.465 86.3898 157.215 86.5646 155.957 87.0173L156.296 87.9582ZM153.154 92.6255L154.154 92.647C154.183 91.2627 154.359 90.5677 154.662 90.1186C154.952 89.6874 155.471 89.3209 156.637 88.8984L156.296 87.9582L155.955 87.0181C154.68 87.4802 153.658 88.0288 153.003 89.0009C152.36 89.9551 152.185 91.1514 152.154 92.604L153.154 92.6255ZM153.154 93.8153H154.154V92.6255H153.154H152.154V93.8153H153.154ZM150.896 96.7743L151.174 97.7351C152.084 97.4723 152.865 97.0554 153.405 96.346C153.943 95.6381 154.136 94.7751 154.154 93.8338L153.154 93.8153L152.154 93.7967C152.141 94.5027 151.999 94.8904 151.812 95.1358C151.627 95.3797 151.295 95.6186 150.619 95.8134L150.896 96.7743ZM149.761 97.0827L150.012 98.0508C150.388 97.9532 150.785 97.8506 151.181 97.7328L150.896 96.7743L150.611 95.8157C150.255 95.9217 149.893 96.0156 149.51 96.1146L149.761 97.0827ZM147.51 97.7809L147.895 98.704C148.551 98.4307 149.241 98.2502 150.012 98.0508L149.761 97.0827L149.51 96.1146C148.762 96.3084 147.934 96.5211 147.126 96.8579L147.51 97.7809ZM165.477 128.287L165.622 129.277C166.37 129.167 167.062 128.916 167.609 128.449C168.171 127.97 168.503 127.33 168.629 126.595L167.643 126.426L166.657 126.257C166.6 126.59 166.474 126.789 166.312 126.927C166.134 127.079 165.835 127.224 165.332 127.298L165.477 128.287ZM164.665 127.911L164.258 128.824C164.535 128.947 164.787 129.06 165.03 129.182L165.477 128.287L165.924 127.393C165.634 127.248 165.342 127.117 165.072 126.997L164.665 127.911ZM162.915 126.975L162.325 127.783C162.97 128.254 163.672 128.563 164.258 128.824L164.665 127.911L165.072 126.997C164.456 126.723 163.951 126.494 163.505 126.168L162.915 126.975ZM157.424 119.288L156.486 119.635C157.655 122.794 159.4 125.746 162.343 127.796L162.915 126.975L163.486 126.155C160.999 124.422 159.45 121.883 158.362 118.941L157.424 119.288ZM156.249 115.932L155.302 116.254C155.683 117.373 156.069 118.507 156.486 119.635L157.424 119.288L158.362 118.941C157.955 117.842 157.578 116.734 157.196 115.61L156.249 115.932ZM155.075 112.577L154.137 112.924C154.543 114.023 154.92 115.131 155.302 116.254L156.249 115.932L157.196 115.61C156.815 114.491 156.43 113.358 156.013 112.23L155.075 112.577ZM149.279 105.134L148.718 105.961C151.286 107.702 153.078 110.032 154.136 112.921L155.075 112.577L156.014 112.233C154.814 108.959 152.763 106.287 149.84 104.306L149.279 105.134ZM147.296 101.869L146.305 101.736C146.162 102.796 146.435 103.669 146.95 104.384C147.435 105.057 148.114 105.559 148.724 105.966L149.279 105.134L149.833 104.301C149.254 103.915 148.835 103.578 148.572 103.214C148.34 102.892 148.216 102.529 148.287 102.003L147.296 101.869ZM148.028 100.68L147.643 99.7567C147.157 99.9595 146.849 100.381 146.681 100.672C146.496 100.993 146.357 101.373 146.306 101.728L147.296 101.869L148.286 102.011C148.29 101.982 148.302 101.93 148.326 101.862C148.35 101.796 148.38 101.729 148.414 101.671C148.449 101.611 148.478 101.575 148.493 101.559C148.511 101.539 148.488 101.571 148.413 101.603L148.028 100.68ZM151.597 99.3985L151.355 98.4284C150.057 98.7527 148.809 99.2349 147.62 99.7669L148.028 100.68L148.436 101.593C149.566 101.087 150.697 100.654 151.84 100.369L151.597 99.3985ZM156.081 93.9991L155.083 93.9373C155.001 95.2669 154.646 96.2025 154.079 96.8809C153.509 97.5621 152.64 98.0864 151.34 98.4321L151.597 99.3985L151.854 100.365C153.422 99.948 154.703 99.2521 155.613 98.1639C156.525 97.073 156.979 95.6902 157.08 94.0608L156.081 93.9991ZM156.075 93.671L155.076 93.6983C155.079 93.8107 155.081 93.9068 155.081 93.9991H156.081H157.081C157.081 93.8748 157.078 93.7512 157.075 93.6437L156.075 93.671ZM156.173 92.5653L155.231 92.229C155.038 92.7712 155.067 93.3599 155.076 93.6983L156.075 93.671L157.075 93.6437C157.063 93.2109 157.071 93.0241 157.115 92.9016L156.173 92.5653ZM157.058 91.1926L156.833 90.2182C156.468 90.3024 156.21 90.5176 156.05 90.6866C155.885 90.8615 155.758 91.0592 155.662 91.2321C155.469 91.5774 155.324 91.9653 155.23 92.2325L156.173 92.5653L157.116 92.8981C157.205 92.6468 157.304 92.394 157.409 92.2055C157.461 92.1115 157.496 92.0689 157.505 92.0589C157.52 92.043 157.449 92.1285 157.282 92.167L157.058 91.1926ZM159.223 91.4061L159.705 90.5299C158.833 90.0502 157.675 89.9877 156.795 90.2278L157.058 91.1926L157.321 92.1573C157.782 92.0314 158.394 92.0909 158.742 92.2823L159.223 91.4061ZM160.393 92.564L161.184 91.9514C160.866 91.5421 160.391 90.9038 159.702 90.5282L159.223 91.4061L158.745 92.284C158.999 92.4228 159.226 92.6905 159.603 93.1766L160.393 92.564ZM160.84 93.1144L161.586 92.4476C161.459 92.3062 161.334 92.1463 161.184 91.9514L160.393 92.564L159.603 93.1766C159.745 93.3607 159.913 93.5779 160.095 93.7812L160.84 93.1144ZM166.301 95.9514L166.368 94.9537C164.424 94.8223 162.916 93.944 161.588 92.45L160.84 93.1144L160.093 93.7788C161.693 95.5794 163.662 96.7754 166.233 96.9491L166.301 95.9514ZM168.497 96.3785L168.826 95.434C168.016 95.1522 167.162 95.0197 166.384 94.9549L166.301 95.9514L166.218 96.948C166.904 97.0051 167.575 97.1166 168.169 97.323L168.497 96.3785ZM168.894 98.0258L169.669 98.6574C169.865 98.4165 170.049 98.1519 170.173 97.8686C170.298 97.5823 170.389 97.2135 170.302 96.8096C170.122 95.9678 169.346 95.6074 168.813 95.4298L168.497 96.3785L168.181 97.3272C168.275 97.3585 168.344 97.387 168.393 97.411C168.443 97.4351 168.464 97.4505 168.466 97.4526C168.468 97.4542 168.446 97.4374 168.418 97.397C168.404 97.3766 168.39 97.3515 168.377 97.322C168.364 97.2923 168.354 97.2608 168.347 97.2286C168.333 97.1625 168.336 97.1095 168.34 97.079C168.345 97.051 168.35 97.0458 168.34 97.0675C168.331 97.0892 168.311 97.128 168.273 97.1857C168.236 97.2429 168.185 97.312 168.118 97.3941L168.894 98.0258ZM168.52 98.5036L169.307 99.1201C169.432 98.9612 169.557 98.8014 169.682 98.641L168.894 98.0258L168.105 97.4105C167.981 97.5695 167.857 97.7281 167.733 97.8872L168.52 98.5036ZM166.057 101.808L166.886 102.368C167.634 101.258 168.454 100.211 169.307 99.1201L168.52 98.5036L167.733 97.8872C166.886 98.9686 166.022 100.071 165.228 101.249L166.057 101.808ZM165.203 108.977L166.144 108.64C165.361 106.454 165.578 104.316 166.887 102.366L166.057 101.808L165.226 101.251C163.546 103.754 163.275 106.559 164.261 109.314L165.203 108.977ZM167.857 122.888L168.852 122.798C168.424 118.052 167.806 113.28 166.144 108.64L165.203 108.977L164.261 109.314C165.833 113.704 166.435 118.266 166.861 122.978L167.857 122.888ZM167.643 126.426L168.631 126.582C168.815 125.417 168.988 124.115 168.851 122.786L167.857 122.888L166.862 122.99C166.969 124.039 166.837 125.117 166.655 126.27L167.643 126.426Z" fill="#2B6CB0" mask="url(#path-6-outside-2_4124_23576)"/>
<path d="M73.0479 178.302C73.2228 178.241 73.4432 178.194 73.6748 178.24L73.7744 178.264L73.7861 178.268L73.7979 178.273C74.263 178.444 74.5707 178.877 74.7871 179.216C75.041 179.615 75.2123 179.952 75.4551 180.266L75.626 180.487L75.5273 180.749C74.8461 182.555 74.3308 184.335 73.5205 185.894C71.7184 189.407 69.7896 192.869 67.9346 196.335L67.9336 196.334C65.3687 201.189 62.8688 206.048 61.6045 211.316C58.9822 222.348 60.6698 232.592 67.6143 241.764L67.7783 241.986C68.1418 242.505 68.3637 243.032 68.3857 243.552C68.412 244.174 68.1499 244.71 67.6719 245.13C67.1709 245.571 66.5317 245.732 65.8955 245.608C65.2679 245.485 64.6739 245.094 64.2031 244.485C63.2761 243.311 62.4112 242.075 61.6084 240.778H61.6074C57.6069 234.285 55.0902 227.38 55.5557 219.467V219.466C55.8947 213.889 57.1268 208.655 59.0322 203.492L59.3271 202.706C62.4087 194.606 66.7154 187.157 71.0869 179.773C71.1089 179.727 71.1466 179.646 71.1797 179.587C71.2213 179.513 71.3078 179.37 71.457 179.271L71.4707 179.262L71.4863 179.253C71.6248 179.174 71.7758 179.072 71.9453 178.954C72.1084 178.84 72.2919 178.71 72.4697 178.597C72.6464 178.485 72.8449 178.374 73.0479 178.302Z" fill="#2B6CB0" stroke="#2B6CB0"/>
<path d="M85.9512 176.148C86.3397 175.648 86.902 175.334 87.4746 175.449C88.0076 175.557 88.3421 175.99 88.4561 176.536L88.4912 176.777V176.78C88.5864 177.953 88.4968 179.297 87.9932 180.439L87.9922 180.438C87.2429 182.245 86.1835 183.93 85.2197 185.556C83.7609 188.018 82.5384 190.458 82.4219 193.253V193.26L82.4209 193.268C82.388 193.728 82.2889 194.226 82.1211 194.67L82.1221 194.671C81.9642 195.145 81.7324 195.699 81.3643 196.11C80.9725 196.547 80.4128 196.829 79.6885 196.681C79.2128 196.586 78.7407 196.339 78.3398 196.039C77.9365 195.738 77.5719 195.359 77.3213 194.965C77.052 194.542 76.9325 194.04 76.8506 193.579C76.7618 193.08 76.7192 192.662 76.6152 192.217L76.5986 192.145L76.6035 192.072C76.7623 189.626 77.5894 187.432 78.9531 185.529C81.2157 182.349 83.6021 179.258 85.9463 176.153L85.9512 176.148Z" fill="#2B6CB0" stroke="#2B6CB0"/>
<path d="M99.6992 175.833C100.005 175.812 100.367 175.82 100.691 175.949L100.828 176.013L100.836 176.018L100.845 176.023C101.034 176.133 101.17 176.302 101.267 176.457C101.366 176.618 101.444 176.801 101.503 176.984C101.618 177.343 101.679 177.766 101.639 178.126L101.638 178.131C101.536 178.979 101.201 179.804 100.817 180.507L100.814 180.513L100.811 180.52C100.162 181.632 99.4433 182.726 98.5947 183.732L98.5889 183.739C97.1552 185.377 96.2898 187.202 96.0869 189.372C96.0177 190.134 95.7118 190.9 95.3604 191.541L95.3613 191.542C95.0015 192.229 94.4971 192.774 93.8301 192.859C93.1413 192.946 92.5427 192.516 92.0752 191.882L92.0723 191.877C91.6855 191.339 91.4151 190.745 91.1885 190.166C90.9477 189.552 90.7841 189.04 90.5518 188.483L90.4951 188.346L90.5215 188.199C90.9493 185.877 91.4841 183.665 92.9062 181.823V181.822C94.2983 180.027 95.9104 178.415 97.4219 176.813L97.4326 176.802C97.6968 176.538 98.1224 176.13 98.6406 176L98.6641 175.994C98.963 175.935 99.3379 175.859 99.6992 175.833Z" fill="#2B6CB0" stroke="#2B6CB0"/>
<path d="M145.91 83.1051C146.49 84.1118 146.703 85.332 146.337 86.4302C146.185 86.9488 145.88 87.3149 145.178 87.4064C143.683 87.5894 143.5 86.2777 143.226 85.2405C142.951 84.2033 142.738 83.1051 143.775 82.373C144.141 82.0985 144.812 81.7934 145.3 82.19C145.544 82.495 145.727 82.8001 145.91 83.1051Z" fill="#2B6CB0" stroke="#2B6CB0" stroke-width="3"/>
<path d="M166.471 81.8432C166.471 82.4838 166.257 83.0939 165.83 83.521C165.647 83.7346 165.464 83.8261 165.281 83.8566C165.25 83.8566 165.22 83.8566 165.159 83.8566C164.579 83.8566 163.756 83.277 163.451 82.7584C163.115 82.1788 162.932 81.2636 163.023 80.4095C163.084 79.8909 163.695 79.0672 164.152 79.0062C164.701 78.9452 165.555 79.3418 165.891 79.7994C166.166 80.1654 166.257 80.6535 166.379 81.2026C166.471 81.4467 166.471 81.6297 166.471 81.8432Z" fill="#2B6CB0" stroke="#2B6CB0" stroke-width="3"/>
</g>
<rect x="13" y="13" width="225" height="349" rx="16" stroke="#70B1F4" stroke-width="5"/>
<path d="M24.0306 59.812C24.0617 59.9375 24.1856 60 24.4011 60H28.523C28.7704 60 28.9859 59.8908 29.1714 59.6711L35.9793 50.884L37.8782 52.7165V59.5302C37.8782 59.8437 38.033 60 38.3412 60H41.5368C41.846 60 42 59.8437 42 59.5302V28.4696C42 28.1569 41.846 28 41.5368 28H38.3412C38.033 28 37.8782 28.1569 37.8782 28.4696V47.5945L29.7273 39.2303C29.5113 39.0116 29.2951 38.9015 29.0789 38.9015H24.8178C24.6328 38.9015 24.5096 38.9801 24.4475 39.1362C24.3859 39.3244 24.4012 39.4651 24.494 39.5592L33.1082 48.0172L24.1233 59.342C24.0003 59.4677 23.9692 59.6241 24.0306 59.812Z" fill="#70B1F4" stroke="#70B1F4"/>
<path d="M41.9694 91.812C41.9383 91.9375 41.8144 92 41.5989 92H37.477C37.2296 92 37.0141 91.8908 36.8286 91.6711L30.0207 82.884L28.1218 84.7165V91.5302C28.1218 91.8437 27.967 92 27.6588 92H24.4632C24.154 92 24 91.8437 24 91.5302V60.4696C24 60.1569 24.154 60 24.4632 60H27.6588C27.967 60 28.1218 60.1569 28.1218 60.4696V79.5945L36.2727 71.2303C36.4887 71.0116 36.7049 70.9015 36.9211 70.9015H41.1822C41.3672 70.9015 41.4904 70.9801 41.5525 71.1362C41.6141 71.3244 41.5988 71.4651 41.506 71.5592L32.8918 80.0172L41.8767 91.342C41.9997 91.4677 42.0308 91.6241 41.9694 91.812Z" fill="#70B1F4" stroke="#70B1F4"/>
<path d="M24.0306 123.812C24.0617 123.937 24.1856 124 24.4011 124H28.523C28.7704 124 28.9859 123.891 29.1714 123.671L35.9793 114.884L37.8782 116.717V123.53C37.8782 123.844 38.033 124 38.3412 124H41.5368C41.846 124 42 123.844 42 123.53V92.4696C42 92.1569 41.846 92 41.5368 92H38.3412C38.033 92 37.8782 92.1569 37.8782 92.4696V111.595L29.7273 103.23C29.5113 103.012 29.2951 102.902 29.0789 102.902H24.8178C24.6328 102.902 24.5096 102.98 24.4475 103.136C24.3859 103.324 24.4012 103.465 24.494 103.559L33.1082 112.017L24.1233 123.342C24.0003 123.468 23.9692 123.624 24.0306 123.812Z" fill="#70B1F4" stroke="#70B1F4"/>
<path d="M41.9694 155.812C41.9383 155.937 41.8144 156 41.5989 156H37.477C37.2296 156 37.0141 155.891 36.8286 155.671L30.0207 146.884L28.1218 148.717V155.53C28.1218 155.844 27.967 156 27.6588 156H24.4632C24.154 156 24 155.844 24 155.53V124.47C24 124.157 24.154 124 24.4632 124H27.6588C27.967 124 28.1218 124.157 28.1218 124.47V143.595L36.2727 135.23C36.4887 135.012 36.7049 134.902 36.9211 134.902H41.1822C41.3672 134.902 41.4904 134.98 41.5525 135.136C41.6141 135.324 41.5988 135.465 41.506 135.559L32.8918 144.017L41.8767 155.342C41.9997 155.468 42.0308 155.624 41.9694 155.812Z" fill="#70B1F4" stroke="#70B1F4"/>
<path d="M24.0306 187.812C24.0617 187.937 24.1856 188 24.4011 188H28.523C28.7704 188 28.9859 187.891 29.1714 187.671L35.9793 178.884L37.8782 180.717V187.53C37.8782 187.844 38.033 188 38.3412 188H41.5368C41.846 188 42 187.844 42 187.53V156.47C42 156.157 41.846 156 41.5368 156H38.3412C38.033 156 37.8782 156.157 37.8782 156.47V175.595L29.7273 167.23C29.5113 167.012 29.2951 166.902 29.0789 166.902H24.8178C24.6328 166.902 24.5096 166.98 24.4475 167.136C24.3859 167.324 24.4012 167.465 24.494 167.559L33.1082 176.017L24.1233 187.342C24.0003 187.468 23.9692 187.624 24.0306 187.812Z" fill="#70B1F4" stroke="#70B1F4"/>
<path d="M41.9694 219.812C41.9383 219.937 41.8144 220 41.5989 220H37.477C37.2296 220 37.0141 219.891 36.8286 219.671L30.0207 210.884L28.1218 212.717V219.53C28.1218 219.844 27.967 220 27.6588 220H24.4632C24.154 220 24 219.844 24 219.53V188.47C24 188.157 24.154 188 24.4632 188H27.6588C27.967 188 28.1218 188.157 28.1218 188.47V207.595L36.2727 199.23C36.4887 199.012 36.7049 198.902 36.9211 198.902H41.1822C41.3672 198.902 41.4904 198.98 41.5525 199.136C41.6141 199.324 41.5988 199.465 41.506 199.559L32.8918 208.017L41.8767 219.342C41.9997 219.468 42.0308 219.624 41.9694 219.812Z" fill="#70B1F4" stroke="#70B1F4"/>
<path d="M24.0306 251.812C24.0617 251.937 24.1856 252 24.4011 252H28.523C28.7704 252 28.9859 251.891 29.1714 251.671L35.9793 242.884L37.8782 244.717V251.53C37.8782 251.844 38.033 252 38.3412 252H41.5368C41.846 252 42 251.844 42 251.53V220.47C42 220.157 41.846 220 41.5368 220H38.3412C38.033 220 37.8782 220.157 37.8782 220.47V239.595L29.7273 231.23C29.5113 231.012 29.2951 230.902 29.0789 230.902H24.8178C24.6328 230.902 24.5096 230.98 24.4475 231.136C24.3859 231.324 24.4012 231.465 24.494 231.559L33.1082 240.017L24.1233 251.342C24.0003 251.468 23.9692 251.624 24.0306 251.812Z" fill="#70B1F4" stroke="#70B1F4"/>
<path d="M41.9694 283.812C41.9383 283.937 41.8144 284 41.5989 284H37.477C37.2296 284 37.0141 283.891 36.8286 283.671L30.0207 274.884L28.1218 276.717V283.53C28.1218 283.844 27.967 284 27.6588 284H24.4632C24.154 284 24 283.844 24 283.53V252.47C24 252.157 24.154 252 24.4632 252H27.6588C27.967 252 28.1218 252.157 28.1218 252.47V271.595L36.2727 263.23C36.4887 263.012 36.7049 262.902 36.9211 262.902H41.1822C41.3672 262.902 41.4904 262.98 41.5525 263.136C41.6141 263.324 41.5988 263.465 41.506 263.559L32.8918 272.017L41.8767 283.342C41.9997 283.468 42.0308 283.624 41.9694 283.812Z" fill="#70B1F4" stroke="#70B1F4"/>
<path d="M24.0306 315.812C24.0617 315.937 24.1856 316 24.4011 316H28.523C28.7704 316 28.9859 315.891 29.1714 315.671L35.9793 306.884L37.8782 308.717V315.53C37.8782 315.844 38.033 316 38.3412 316H41.5368C41.846 316 42 315.844 42 315.53V284.47C42 284.157 41.846 284 41.5368 284H38.3412C38.033 284 37.8782 284.157 37.8782 284.47V303.595L29.7273 295.23C29.5113 295.012 29.2951 294.902 29.0789 294.902H24.8178C24.6328 294.902 24.5096 294.98 24.4475 295.136C24.3859 295.324 24.4012 295.465 24.494 295.559L33.1082 304.017L24.1233 315.342C24.0003 315.468 23.9692 315.624 24.0306 315.812Z" fill="#70B1F4" stroke="#70B1F4"/>
<path d="M41.9694 347.812C41.9383 347.937 41.8144 348 41.5989 348H37.477C37.2296 348 37.0141 347.891 36.8286 347.671L30.0207 338.884L28.1218 340.717V347.53C28.1218 347.844 27.967 348 27.6588 348H24.4632C24.154 348 24 347.844 24 347.53V316.47C24 316.157 24.154 316 24.4632 316H27.6588C27.967 316 28.1218 316.157 28.1218 316.47V335.595L36.2727 327.23C36.4887 327.012 36.7049 326.902 36.9211 326.902H41.1822C41.3672 326.902 41.4904 326.98 41.5525 327.136C41.6141 327.324 41.5988 327.465 41.506 327.559L32.8918 336.017L41.8767 347.342C41.9997 347.468 42.0308 347.624 41.9694 347.812Z" fill="#70B1F4" stroke="#70B1F4"/>
<path d="M225.969 59.812C225.938 59.9375 225.814 60 225.599 60H221.477C221.23 60 221.014 59.8908 220.829 59.6711L214.021 50.884L212.122 52.7165V59.5302C212.122 59.8437 211.967 60 211.659 60H208.463C208.154 60 208 59.8437 208 59.5302V28.4696C208 28.1569 208.154 28 208.463 28H211.659C211.967 28 212.122 28.1569 212.122 28.4696V47.5945L220.273 39.2303C220.489 39.0116 220.705 38.9015 220.921 38.9015H225.182C225.367 38.9015 225.49 38.9801 225.552 39.1362C225.614 39.3244 225.599 39.4651 225.506 39.5592L216.892 48.0172L225.877 59.342C226 59.4677 226.031 59.6241 225.969 59.812Z" fill="#70B1F4" stroke="#70B1F4"/>
<path d="M208.031 91.812C208.062 91.9375 208.186 92 208.401 92H212.523C212.77 92 212.986 91.8908 213.171 91.6711L219.979 82.884L221.878 84.7165V91.5302C221.878 91.8437 222.033 92 222.341 92H225.537C225.846 92 226 91.8437 226 91.5302V60.4696C226 60.1569 225.846 60 225.537 60H222.341C222.033 60 221.878 60.1569 221.878 60.4696V79.5945L213.727 71.2303C213.511 71.0116 213.295 70.9015 213.079 70.9015H208.818C208.633 70.9015 208.51 70.9801 208.448 71.1362C208.386 71.3244 208.401 71.4651 208.494 71.5592L217.108 80.0172L208.123 91.342C208 91.4677 207.969 91.6241 208.031 91.812Z" fill="#70B1F4" stroke="#70B1F4"/>
<path d="M225.969 123.812C225.938 123.937 225.814 124 225.599 124H221.477C221.23 124 221.014 123.891 220.829 123.671L214.021 114.884L212.122 116.717V123.53C212.122 123.844 211.967 124 211.659 124H208.463C208.154 124 208 123.844 208 123.53V92.4696C208 92.1569 208.154 92 208.463 92H211.659C211.967 92 212.122 92.1569 212.122 92.4696V111.595L220.273 103.23C220.489 103.012 220.705 102.902 220.921 102.902H225.182C225.367 102.902 225.49 102.98 225.552 103.136C225.614 103.324 225.599 103.465 225.506 103.559L216.892 112.017L225.877 123.342C226 123.468 226.031 123.624 225.969 123.812Z" fill="#70B1F4" stroke="#70B1F4"/>
<path d="M208.031 155.812C208.062 155.937 208.186 156 208.401 156H212.523C212.77 156 212.986 155.891 213.171 155.671L219.979 146.884L221.878 148.717V155.53C221.878 155.844 222.033 156 222.341 156H225.537C225.846 156 226 155.844 226 155.53V124.47C226 124.157 225.846 124 225.537 124H222.341C222.033 124 221.878 124.157 221.878 124.47V143.595L213.727 135.23C213.511 135.012 213.295 134.902 213.079 134.902H208.818C208.633 134.902 208.51 134.98 208.448 135.136C208.386 135.324 208.401 135.465 208.494 135.559L217.108 144.017L208.123 155.342C208 155.468 207.969 155.624 208.031 155.812Z" fill="#70B1F4" stroke="#70B1F4"/>
<path d="M225.969 187.812C225.938 187.937 225.814 188 225.599 188H221.477C221.23 188 221.014 187.891 220.829 187.671L214.021 178.884L212.122 180.717V187.53C212.122 187.844 211.967 188 211.659 188H208.463C208.154 188 208 187.844 208 187.53V156.47C208 156.157 208.154 156 208.463 156H211.659C211.967 156 212.122 156.157 212.122 156.47V175.595L220.273 167.23C220.489 167.012 220.705 166.902 220.921 166.902H225.182C225.367 166.902 225.49 166.98 225.552 167.136C225.614 167.324 225.599 167.465 225.506 167.559L216.892 176.017L225.877 187.342C226 187.468 226.031 187.624 225.969 187.812Z" fill="#70B1F4" stroke="#70B1F4"/>
<path d="M208.031 219.812C208.062 219.937 208.186 220 208.401 220H212.523C212.77 220 212.986 219.891 213.171 219.671L219.979 210.884L221.878 212.717V219.53C221.878 219.844 222.033 220 222.341 220H225.537C225.846 220 226 219.844 226 219.53V188.47C226 188.157 225.846 188 225.537 188H222.341C222.033 188 221.878 188.157 221.878 188.47V207.595L213.727 199.23C213.511 199.012 213.295 198.902 213.079 198.902H208.818C208.633 198.902 208.51 198.98 208.448 199.136C208.386 199.324 208.401 199.465 208.494 199.559L217.108 208.017L208.123 219.342C208 219.468 207.969 219.624 208.031 219.812Z" fill="#70B1F4" stroke="#70B1F4"/>
<path d="M225.969 251.812C225.938 251.937 225.814 252 225.599 252H221.477C221.23 252 221.014 251.891 220.829 251.671L214.021 242.884L212.122 244.717V251.53C212.122 251.844 211.967 252 211.659 252H208.463C208.154 252 208 251.844 208 251.53V220.47C208 220.157 208.154 220 208.463 220H211.659C211.967 220 212.122 220.157 212.122 220.47V239.595L220.273 231.23C220.489 231.012 220.705 230.902 220.921 230.902H225.182C225.367 230.902 225.49 230.98 225.552 231.136C225.614 231.324 225.599 231.465 225.506 231.559L216.892 240.017L225.877 251.342C226 251.468 226.031 251.624 225.969 251.812Z" fill="#70B1F4" stroke="#70B1F4"/>
<path d="M208.031 283.812C208.062 283.937 208.186 284 208.401 284H212.523C212.77 284 212.986 283.891 213.171 283.671L219.979 274.884L221.878 276.717V283.53C221.878 283.844 222.033 284 222.341 284H225.537C225.846 284 226 283.844 226 283.53V252.47C226 252.157 225.846 252 225.537 252H222.341C222.033 252 221.878 252.157 221.878 252.47V271.595L213.727 263.23C213.511 263.012 213.295 262.902 213.079 262.902H208.818C208.633 262.902 208.51 262.98 208.448 263.136C208.386 263.324 208.401 263.465 208.494 263.559L217.108 272.017L208.123 283.342C208 283.468 207.969 283.624 208.031 283.812Z" fill="#70B1F4" stroke="#70B1F4"/>
<path d="M225.969 315.812C225.938 315.937 225.814 316 225.599 316H221.477C221.23 316 221.014 315.891 220.829 315.671L214.021 306.884L212.122 308.717V315.53C212.122 315.844 211.967 316 211.659 316H208.463C208.154 316 208 315.844 208 315.53V284.47C208 284.157 208.154 284 208.463 284H211.659C211.967 284 212.122 284.157 212.122 284.47V303.595L220.273 295.23C220.489 295.012 220.705 294.902 220.921 294.902H225.182C225.367 294.902 225.49 294.98 225.552 295.136C225.614 295.324 225.599 295.465 225.506 295.559L216.892 304.017L225.877 315.342C226 315.468 226.031 315.624 225.969 315.812Z" fill="#70B1F4" stroke="#70B1F4"/>
<path d="M208.031 347.812C208.062 347.937 208.186 348 208.401 348H212.523C212.77 348 212.986 347.891 213.171 347.671L219.979 338.884L221.878 340.717V347.53C221.878 347.844 222.033 348 222.341 348H225.537C225.846 348 226 347.844 226 347.53V316.47C226 316.157 225.846 316 225.537 316H222.341C222.033 316 221.878 316.157 221.878 316.47V335.595L213.727 327.23C213.511 327.012 213.295 326.902 213.079 326.902H208.818C208.633 326.902 208.51 326.98 208.448 327.136C208.386 327.324 208.401 327.465 208.494 327.559L217.108 336.017L208.123 347.342C208 347.468 207.969 347.624 208.031 347.812Z" fill="#70B1F4" stroke="#70B1F4"/>
<path d="M174.188 40.9694C174.063 40.9383 174 40.8144 174 40.5989V36.477C174 36.2296 174.109 36.0141 174.329 35.8286L183.116 29.0207L181.283 27.1218H174.47C174.156 27.1218 174 26.967 174 26.6588V23.4632C174 23.154 174.156 23 174.47 23L205.53 23C205.843 23 206 23.154 206 23.4632V26.6588C206 26.967 205.843 27.1218 205.53 27.1218H186.405L194.77 35.2727C194.988 35.4887 195.098 35.7049 195.098 35.9211V40.1822C195.098 40.3672 195.02 40.4904 194.864 40.5525C194.676 40.6141 194.535 40.5988 194.441 40.506L185.983 31.8918L174.658 40.8767C174.532 40.9997 174.376 41.0308 174.188 40.9694Z" fill="#70B1F4" stroke="#70B1F4"/>
<path d="M142.188 23.0306C142.063 23.0617 142 23.1856 142 23.4011V27.523C142 27.7704 142.109 27.9859 142.329 28.1714L151.116 34.9793L149.283 36.8782H142.47C142.156 36.8782 142 37.033 142 37.3412V40.5368C142 40.846 142.156 41 142.47 41H173.53C173.843 41 174 40.846 174 40.5368V37.3412C174 37.033 173.843 36.8782 173.53 36.8782H154.405L162.77 28.7273C162.988 28.5113 163.098 28.2951 163.098 28.0789V23.8178C163.098 23.6328 163.02 23.5096 162.864 23.4475C162.676 23.3859 162.535 23.4012 162.441 23.494L153.983 32.1082L142.658 23.1233C142.532 23.0003 142.376 22.9692 142.188 23.0306Z" fill="#70B1F4" stroke="#70B1F4"/>
<path d="M110.188 40.9694C110.063 40.9383 110 40.8144 110 40.5989V36.477C110 36.2296 110.109 36.0141 110.329 35.8286L119.116 29.0207L117.283 27.1218H110.47C110.156 27.1218 110 26.967 110 26.6588V23.4632C110 23.154 110.156 23 110.47 23L141.53 23C141.843 23 142 23.154 142 23.4632V26.6588C142 26.967 141.843 27.1218 141.53 27.1218H122.405L130.77 35.2727C130.988 35.4887 131.098 35.7049 131.098 35.9211V40.1822C131.098 40.3672 131.02 40.4904 130.864 40.5525C130.676 40.6141 130.535 40.5988 130.441 40.506L121.983 31.8918L110.658 40.8767C110.532 40.9997 110.376 41.0308 110.188 40.9694Z" fill="#70B1F4" stroke="#70B1F4"/>
<path d="M78.188 23.0306C78.0625 23.0617 78 23.1856 78 23.4011V27.523C78 27.7704 78.1092 27.9859 78.3289 28.1714L87.116 34.9793L85.2835 36.8782H78.4698C78.1563 36.8782 78 37.033 78 37.3412V40.5368C78 40.846 78.1563 41 78.4698 41H109.53C109.843 41 110 40.846 110 40.5368V37.3412C110 37.033 109.843 36.8782 109.53 36.8782H90.4055L98.7697 28.7273C98.9884 28.5113 99.0985 28.2951 99.0985 28.0789V23.8178C99.0985 23.6328 99.0199 23.5096 98.8638 23.4475C98.6756 23.3859 98.5349 23.4012 98.4408 23.494L89.9828 32.1082L78.658 23.1233C78.5323 23.0003 78.3759 22.9692 78.188 23.0306Z" fill="#70B1F4" stroke="#70B1F4"/>
<path d="M46.188 40.9694C46.0625 40.9383 46 40.8144 46 40.5989V36.477C46 36.2296 46.1092 36.0141 46.3289 35.8286L55.116 29.0207L53.2835 27.1218H46.4698C46.1563 27.1218 46 26.967 46 26.6588V23.4632C46 23.154 46.1563 23 46.4698 23L77.5304 23C77.8431 23 78 23.154 78 23.4632V26.6588C78 26.967 77.8431 27.1218 77.5304 27.1218H58.4055L66.7697 35.2727C66.9884 35.4887 67.0985 35.7049 67.0985 35.9211V40.1822C67.0985 40.3672 67.0199 40.4904 66.8638 40.5525C66.6756 40.6141 66.5349 40.5988 66.4408 40.506L57.9828 31.8918L46.658 40.8767C46.5323 40.9997 46.3759 41.0308 46.188 40.9694Z" fill="#70B1F4" stroke="#70B1F4"/>
<path d="M174.188 334.031C174.063 334.062 174 334.186 174 334.401V338.523C174 338.77 174.109 338.986 174.329 339.171L183.116 345.979L181.283 347.878H174.47C174.156 347.878 174 348.033 174 348.341V351.537C174 351.846 174.156 352 174.47 352H205.53C205.843 352 206 351.846 206 351.537V348.341C206 348.033 205.843 347.878 205.53 347.878H186.405L194.77 339.727C194.988 339.511 195.098 339.295 195.098 339.079V334.818C195.098 334.633 195.02 334.51 194.864 334.448C194.676 334.386 194.535 334.401 194.441 334.494L185.983 343.108L174.658 334.123C174.532 334 174.376 333.969 174.188 334.031Z" fill="#70B1F4" stroke="#70B1F4"/>
<path d="M142.188 351.969C142.063 351.938 142 351.814 142 351.599V347.477C142 347.23 142.109 347.014 142.329 346.829L151.116 340.021L149.283 338.122H142.47C142.156 338.122 142 337.967 142 337.659V334.463C142 334.154 142.156 334 142.47 334H173.53C173.843 334 174 334.154 174 334.463V337.659C174 337.967 173.843 338.122 173.53 338.122H154.405L162.77 346.273C162.988 346.489 163.098 346.705 163.098 346.921V351.182C163.098 351.367 163.02 351.49 162.864 351.552C162.676 351.614 162.535 351.599 162.441 351.506L153.983 342.892L142.658 351.877C142.532 352 142.376 352.031 142.188 351.969Z" fill="#70B1F4" stroke="#70B1F4"/>
<path d="M110.188 334.031C110.063 334.062 110 334.186 110 334.401V338.523C110 338.77 110.109 338.986 110.329 339.171L119.116 345.979L117.283 347.878H110.47C110.156 347.878 110 348.033 110 348.341V351.537C110 351.846 110.156 352 110.47 352H141.53C141.843 352 142 351.846 142 351.537V348.341C142 348.033 141.843 347.878 141.53 347.878H122.405L130.77 339.727C130.988 339.511 131.098 339.295 131.098 339.079V334.818C131.098 334.633 131.02 334.51 130.864 334.448C130.676 334.386 130.535 334.401 130.441 334.494L121.983 343.108L110.658 334.123C110.532 334 110.376 333.969 110.188 334.031Z" fill="#70B1F4" stroke="#70B1F4"/>
<path d="M78.188 351.969C78.0625 351.938 78 351.814 78 351.599V347.477C78 347.23 78.1092 347.014 78.3289 346.829L87.116 340.021L85.2835 338.122H78.4698C78.1563 338.122 78 337.967 78 337.659V334.463C78 334.154 78.1563 334 78.4698 334H109.53C109.843 334 110 334.154 110 334.463V337.659C110 337.967 109.843 338.122 109.53 338.122H90.4055L98.7697 346.273C98.9884 346.489 99.0985 346.705 99.0985 346.921V351.182C99.0985 351.367 99.0199 351.49 98.8638 351.552C98.6756 351.614 98.5349 351.599 98.4408 351.506L89.9828 342.892L78.658 351.877C78.5323 352 78.3759 352.031 78.188 351.969Z" fill="#70B1F4" stroke="#70B1F4"/>
<path d="M46.188 334.031C46.0625 334.062 46 334.186 46 334.401V338.523C46 338.77 46.1092 338.986 46.3289 339.171L55.116 345.979L53.2835 347.878H46.4698C46.1563 347.878 46 348.033 46 348.341V351.537C46 351.846 46.1563 352 46.4698 352H77.5304C77.8431 352 78 351.846 78 351.537V348.341C78 348.033 77.8431 347.878 77.5304 347.878H58.4055L66.7697 339.727C66.9884 339.511 67.0985 339.295 67.0985 339.079V334.818C67.0985 334.633 67.0199 334.51 66.8638 334.448C66.6756 334.386 66.5349 334.401 66.4408 334.494L57.9828 343.108L46.658 334.123C46.5323 334 46.3759 333.969 46.188 334.031Z" fill="#70B1F4" stroke="#70B1F4"/>
<defs>
<clipPath id="clip0_4124_23576">
<rect width="150" height="275" fill="white" transform="translate(50 50)"/>
</clipPath>
</defs>
</svg>
