<svg xmlns="http://www.w3.org/2000/svg" width="60" height="60" viewBox="0 0 60 60">
  <rect width="60" height="60" fill="#5d574d"/>
  <g stroke="#4a443b" stroke-width="0.8" fill="#a8a195">
    <ellipse cx="14" cy="13" rx="9"  ry="7"/>
    <ellipse cx="36" cy="11" rx="10" ry="6"/>
    <ellipse cx="51" cy="14" rx="6"  ry="7"/>
    <ellipse cx="11" cy="32" rx="7"  ry="7"/>
    <ellipse cx="30" cy="30" rx="9"  ry="7"/>
    <ellipse cx="49" cy="32" rx="8"  ry="7"/>
    <ellipse cx="15" cy="49" rx="10" ry="7"/>
    <ellipse cx="38" cy="49" rx="11" ry="7"/>
  </g>
  <g fill="#b8b1a4" opacity="0.5">
    <ellipse cx="13" cy="12" rx="3.5" ry="2"/>
    <ellipse cx="35" cy="10" rx="4"   ry="1.8"/>
    <ellipse cx="29" cy="29" rx="3.5" ry="2"/>
    <ellipse cx="48" cy="31" rx="3"   ry="2"/>
    <ellipse cx="14" cy="48" rx="4"   ry="2"/>
    <ellipse cx="37" cy="48" rx="4"   ry="2"/>
  </g>
</svg>
