<svg xmlns="http://www.w3.org/2000/svg">
  <symbol id="info" viewBox="0 0 24 24">
    <rect x="9" y="7" width="6" height="17" rx="1" fill="currentColor" />
    <rect x="9" width="6" height="5" rx="1" fill="currentColor" />
  </symbol>

  <symbol id="settings" viewBox="0 0 24 24">
    <path fill="currentColor" d="M12.2 0c1 0 2 .7 2.2 1.8V2q.3.9 1.2 1.3.8.3 1.7-.1l.3-.2a2 2 0 0 1 2.7.3l.3.3c.8.7.9 1.9.3 2.7l-.2.3q-.4.9 0 1.7.3.9 1.2 1.2h.3q1.7.4 1.8 2.2v.4c0 1-.7 2-1.8 2.2H22q-.9.3-1.3 1.2-.3.8.1 1.7l.2.3c.6.8.5 2-.3 2.7l-.3.3a2 2 0 0 1-2.7.3l-.3-.2q-.9-.4-1.7 0-.9.3-1.2 1.2v.3Q14 24 12.2 24h-.4q-1.7 0-2.2-1.8V22q-.3-.9-1.2-1.3-.8-.3-1.7.1l-.3.2a2 2 0 0 1-2.7-.3l-.3-.3a2 2 0 0 1-.3-2.7l.2-.3q.4-.8 0-1.7-.3-.9-1.2-1.2h-.3Q.2 14 0 12.2v-.4Q0 10 1.8 9.6H2q.9-.3 1.3-1.2.3-.8-.1-1.7L3 6.4a2 2 0 0 1 .3-2.7l.3-.3a2 2 0 0 1 2.7-.3l.3.2q.9.4 1.7 0 .9-.3 1.2-1.2v-.3Q10 .2 11.8 0zM12 9.6a2.4 2.4 0 1 0 0 4.8 2.4 2.4 0 0 0 0-4.8"/>
  </symbol>

  <symbol id="sound-off" viewBox="0 0 24 24">
    <path fill="currentColor" d="M12.02 6 7.64 9.49H3v5.02h4.64L12.02 18z"/>
    <path stroke="currentColor" stroke-linecap="round" stroke-linejoin="round" stroke-width="1.85" d="m21 9.72-2.25 2.2m0 0L16.5 14.1m2.25-2.2 2.25 2.2m-2.25-2.2L16.5 9.73M12.02 6 7.64 9.49H3v5.02h4.64L12.02 18z"/>
  </symbol>

  <symbol id="sound-on" viewBox="0 0 24 24">
    <path fill="currentColor" d="M12 6 7.59 9.49H3v5.02h4.59L12 18z"/>
    <path stroke="currentColor" stroke-linecap="round" stroke-linejoin="round" stroke-width="2" d="M19.68 8.08a9 9 0 0 1 .3 8.82m-3.63-7.18a4.3 4.3 0 0 1 .25 5.49M12 6 7.59 9.49H3v5.02h4.59L12 18z"/>
  </symbol>

  <symbol id="anthropic" viewBox="0 0 128 128">
    <path fill="#d97757" d="m30 82.5 22-12.3.4-1.1-.4-.6h-1l-3.7-.2-12.6-.4-11-.4-10.5-.6-2.7-.6L8 63l.3-1.6 2.2-1.5 3.2.3 7 .5 10.7.7 7.7.4L50.6 63h1.8l.2-.7-.6-.5-.5-.4-11-7.5-11.9-7.8-6.2-4.6-3.4-2.3-1.7-2.1-.7-4.7 3-3.4 4.1.3 1.1.2 4.2 3.3 8.9 6.8 11.6 8.6 1.7 1.4.7-.5v-.3l-.7-1.3-6.3-11.4L38 24.5l-3-4.9-.8-2.8a14 14 0 0 1-.5-3.4l3.5-4.8 2-.6 4.6.6 2 1.7 2.9 6.6 4.6 10.4 7.3 14.2 2.1 4.2 1.2 3.9.4 1.2h.7V50l.6-8 1.1-9.8 1-12.6.5-3.5 1.7-4.3 3.5-2.3 2.7 1.3 2.3 3.2-.3 2.1-1.4 8.7-2.6 13.5-1.7 9h1l1.1-1 4.6-6.1 7.7-9.7 3.4-3.8 4-4.2 2.6-2h4.8l3.5 5.2-1.6 5.5-5 6.3-4 5.3-6 8-3.6 6.3.3.5h.9l13.3-3 7.2-1.2 8.6-1.5 4 1.8.3 1.9-1.5 3.7-9.2 2.3-10.8 2.2-16 3.8-.2.1.2.3 7.2.7 3.1.1h7.6l14.1 1 3.7 2.5 2.2 3-.4 2.3-5.6 2.9-7.7-1.9-17.9-4.2-6-1.5h-1v.5l5.2 5 9.3 8.4 11.7 10.9.6 2.7-1.5 2.1-1.6-.2L95 94.6l-4-3.4-9-7.6h-.6v.8l2 3 11 16.5.6 5-.8 1.6-2.9 1-3-.5-6.5-9-6.6-10.1-5.3-9.1-.7.3-3.1 34-1.5 1.7-3.4 1.3-2.8-2.2-1.5-3.5 1.5-6.9 1.8-9 1.5-7.1 1.3-8.9.8-3v-.1H63l-6.7 9.2L46 102.4l-8 8.6-2 .8-3.3-1.7.3-3.1 1.9-2.8L46 90l6.7-8.8 4.4-5v-.8h-.3L27.3 94.7l-5.3.6-2.3-2 .3-3.6 1-1.1z"/>
  </symbol>

  <symbol id="deepseek" viewBox="0 0 128 128">
    <path fill="#4d6bfe" d="M118 32v2.4l-.6 3q-1 4.6-4 8a19 19 0 0 1-12 6.2c-1.6.1-.6 2.1-.8 4.3a51 51 0 0 1-11.4 27.7l-4.1 4.8q1 .7 2 1 4.1 1.4 7.8 3.4c.7.4.6 1.7.4 2.3q-.3 1-1.6 1.5a25 25 0 0 1-10.6.7q-3.2-.2-6.2-1.6a36 36 0 0 1-25.1 8.6A43.1 43.1 0 0 1 9.3 66c0-.3-.2-2.4-.3-1.8V58c0-10.5 9.6-25.2 23.7-28.1a45 45 0 0 1 16.2-.2c1 .2 2-.5 2.8-.8q3-1.2 6.1-2c2.5-.7 7-1.5 9.1 0q.4.1.4.5t-.4.6c-1.6.8-3.1 2-3.5 4-.4 1.4.3 3.3 1.6 4.2q4.7 3.2 8.8 7.2l6.4 6.5q3.5 3.4 8 5.3.8.1 1.1-.6l1.3-4q.3-1-.7-1.5a18 18 0 0 1-8.2-14.5q-.4-5.3 2.2-9.8.5-.7 1.2-.7c2.2.2.9 4.8 4.9 7l3 1.4a9 9 0 0 1 5 6.7 12 12 0 0 1 9.3-3.8c7.4.4 7.9-8 10.8-3.3M61 91.7q3 2.4 6.6 3 3.9.8 7.8.2c-7.1-5-10.7-9.7-15.4-16.6l-4.9-7a44 44 0 0 0-29-18.3q-4.2-.8-8.5.3-1.3.4-1.4 1.8a45 45 0 0 0 4.6 18.5Q25.6 83.7 35 89.9c2.4 1.5 4.9 2.7 7.8 2.7 1.4 0 3.7-.5 3.9-1.9.2-1.6-2.2-3-2.4-6.5q-.2-1.1.6-1.6c2.5-1.7 13.7 7.2 16 9m12.4-22.4a6 6 0 0 0 6.8 1c.7-.4 1.6-1 1.3-2q-.7-2.3-2.2-4.3a25 25 0 0 0-5.6-6.3c-2.3-1.8-6.6-2.8-8-.2q-.5 1 .6 1.6.9.4 1.9.3c1.5.1 3 1 3.4 2.6.5 1.7-1.6 4.4 1.8 7.3M69 62.9a1.4 1.4 0 1 0-2.8 0 1.4 1.4 0 0 0 2.8 0"/>
  </symbol>

  <symbol id="gemini" viewBox="0 0 128 128">
    <path fill="url(#gemini-gradient) #217bfe" d="M110.82 63.82c-6.45 0-12.4-1.22-18.07-3.63a48 48 0 0 1-14.87-10.07c-4.2-4.2-7.58-9.2-10.07-14.86a45.5 45.5 0 0 1-3.62-18.07.19.19 0 1 0-.37 0 44 44 0 0 1-3.75 18.07 47 47 0 0 1-9.95 14.86c-4.19 4.2-9.2 7.58-14.86 10.07a46 46 0 0 1-18.07 3.63.19.19 0 1 0 0 .37 44 44 0 0 1 18.07 3.74 47 47 0 0 1 14.86 9.95 47 47 0 0 1 9.95 14.87 44 44 0 0 1 3.75 18.06q.02.17.18.19c.1 0 .19-.08.19-.19a45.5 45.5 0 0 1 3.62-18.06 46.67 46.67 0 0 1 24.93-24.82 44 44 0 0 1 18.08-3.74.19.19 0 0 0 0-.37"/>
    <defs>
      <linearGradient id="gemini-gradient" x1="46.26" x2="88.78" y1="77.76" y2="41.91" gradientUnits="userSpaceOnUse">
        <stop offset="0" stop-color="#217bfe"/>
        <stop offset=".27" stop-color="#078efb"/>
        <stop offset=".78" stop-color="#a190ff"/>
        <stop offset="1" stop-color="#bd99fe"/>
      </linearGradient>
    </defs>
  </symbol>

  <symbol id="grok" viewBox="0 0 128 128">
    <path fill="currentColor" d="m110.4 19-.1.3-6.3 9q-2.4 3.6-4.2 7.7a28 28 0 0 0-2 12.4q.3 4.2 1.3 8.2 1.1 5.1 1 10.2-.8 13-9.6 22.4Q83 97.5 72 99.7A35 35 0 0 1 44.6 94l-.2-.2h.2l10.2-4.9h.5a27 27 0 0 0 10.9 2q8.7-.4 15.3-6.1 7-6 8.7-15.2Q91.5 62 88.6 55a3 3 0 0 0-4-1.4l-.6.3-30.6 22.8-.3.2zM47 82.8l-29 26.4.1-.2q2.2-2.8 4.5-5.3 2.9-3 5.6-6.2 2.4-2.6 4.3-5.9 1.3-2.6 1.8-5.4.5-3.7-.8-7.2l-1.7-5a36 36 0 0 1 15.4-38.9 33 33 0 0 1 30.9-2.5 32 32 0 0 1 7 3.9l-.2.1-9.9 4.7h-.4q-10.5-4.1-20.6.9a25 25 0 0 0-13 15.6 25 25 0 0 0 5.9 24.8z"/>
  </symbol>

  <symbol id="openai" viewBox="0 0 128 128">
    <path fill="currentColor" d="M110.1 54.38a26.3 26.3 0 0 0-2.28-21.7 26.92 26.92 0 0 0-28.87-12.8 26.9 26.9 0 0 0-25.57-8.3 27 27 0 0 0-20.01 17.89 26.6 26.6 0 0 0-17.73 12.8 26.6 26.6 0 0 0 3.3 31.35 26.3 26.3 0 0 0 2.26 21.69 26.94 26.94 0 0 0 28.9 12.8A26.6 26.6 0 0 0 70.08 117c5.7 0 11.24-1.8 15.84-5.13a26.8 26.8 0 0 0 9.76-13.45 26.6 26.6 0 0 0 17.73-12.8 26.65 26.65 0 0 0-3.32-31.24M70.1 110.06a20 20 0 0 1-12.76-4.6l.63-.35 21.2-12.18a3.5 3.5 0 0 0 1.73-3.01V60.16l8.96 5.17a.3.3 0 0 1 .17.23V90.2a19.9 19.9 0 0 1-5.85 14.03 20 20 0 0 1-14.08 5.82M27.24 91.84a19.7 19.7 0 0 1-2.37-13.3l.63.37L46.7 91.09a3.4 3.4 0 0 0 3.46 0L76.1 76.2v10.3a.4.4 0 0 1-.15.27L54.48 99.11a20.03 20.03 0 0 1-27.24-7.27m-5.58-45.97a20 20 0 0 1 10.5-8.71v25.07a3.4 3.4 0 0 0 1.71 3l25.79 14.8-8.96 5.17a.3.3 0 0 1-.32 0L28.96 72.89a19.82 19.82 0 0 1-7.3-27.12zm73.6 17.03L69.4 47.94l8.93-5.14a.3.3 0 0 1 .32 0l21.42 12.33a19.9 19.9 0 0 1 9.9 18.84 19.8 19.8 0 0 1-12.9 16.95V65.85a3.5 3.5 0 0 0-1.8-2.95m8.93-13.35-.63-.38L82.38 36.9a3.5 3.5 0 0 0-3.48 0L53 51.76v-10.3a.3.3 0 0 1 .13-.27l21.43-12.3a20.02 20.02 0 0 1 28.37 9.55c1.46 3.48 1.9 7.3 1.26 11.03zM48.12 67.81l-8.96-5.14a.4.4 0 0 1-.17-.25v-24.6a19.8 19.8 0 0 1 11.5-17.96 20 20 0 0 1 21.21 2.71l-.63.36L49.88 35.1a3.5 3.5 0 0 0-1.74 3.01zm4.87-10.45 11.54-6.62 11.56 6.62v13.25l-11.52 6.63L53 70.6z"/>
  </symbol>
</svg>
