<svg xmlns="http://www.w3.org/2000/svg">
  <symbol id="info" viewBox="0 0 24 24">
    <rect x="9" y="7" width="6" height="17" rx="1" fill="currentColor" />
    <rect x="9" width="6" height="5" rx="1" fill="currentColor" />
  </symbol>

  <symbol id="settings" viewBox="0 0 24 24">
    <path fill="currentColor" d="M12.2 0c1 0 2 .7 2.2 1.8V2q.3.9 1.2 1.3.8.3 1.7-.1l.3-.2a2 2 0 0 1 2.7.3l.3.3c.8.7.9 1.9.3 2.7l-.2.3q-.4.9 0 1.7.3.9 1.2 1.2h.3q1.7.4 1.8 2.2v.4c0 1-.7 2-1.8 2.2H22q-.9.3-1.3 1.2-.3.8.1 1.7l.2.3c.6.8.5 2-.3 2.7l-.3.3a2 2 0 0 1-2.7.3l-.3-.2q-.9-.4-1.7 0-.9.3-1.2 1.2v.3Q14 24 12.2 24h-.4q-1.7 0-2.2-1.8V22q-.3-.9-1.2-1.3-.8-.3-1.7.1l-.3.2a2 2 0 0 1-2.7-.3l-.3-.3a2 2 0 0 1-.3-2.7l.2-.3q.4-.8 0-1.7-.3-.9-1.2-1.2h-.3Q.2 14 0 12.2v-.4Q0 10 1.8 9.6H2q.9-.3 1.3-1.2.3-.8-.1-1.7L3 6.4a2 2 0 0 1 .3-2.7l.3-.3a2 2 0 0 1 2.7-.3l.3.2q.9.4 1.7 0 .9-.3 1.2-1.2v-.3Q10 .2 11.8 0zM12 9.6a2.4 2.4 0 1 0 0 4.8 2.4 2.4 0 0 0 0-4.8"/>
  </symbol>

  <symbol id="sound-off" viewBox="0 0 24 24">
    <path fill="currentColor" d="M12.02 6 7.64 9.49H3v5.02h4.64L12.02 18z"/>
    <path stroke="currentColor" stroke-linecap="round" stroke-linejoin="round" stroke-width="1.85" d="m21 9.72-2.25 2.2m0 0L16.5 14.1m2.25-2.2 2.25 2.2m-2.25-2.2L16.5 9.73M12.02 6 7.64 9.49H3v5.02h4.64L12.02 18z"/>
  </symbol>

  <symbol id="sound-on" viewBox="0 0 24 24">
    <path fill="currentColor" d="M12 6 7.59 9.49H3v5.02h4.59L12 18z"/>
    <path stroke="currentColor" stroke-linecap="round" stroke-linejoin="round" stroke-width="2" d="M19.68 8.08a9 9 0 0 1 .3 8.82m-3.63-7.18a4.3 4.3 0 0 1 .25 5.49M12 6 7.59 9.49H3v5.02h4.59L12 18z"/>
  </symbol>
</svg>
